<?xml version="1.0" standalone="no"?>
<!DOCTYPE svg PUBLIC "-//W3C//DTD SVG 1.1//EN" "http://www.w3.org/Graphics/SVG/1.1/DTD/svg11.dtd" >
<svg>
<metadata>
Created by FontForge 20120731 at Sat Nov  1 06:39:01 2014
 By Orthosie Webhosting
DSU_Cologne Condense (c) Dusit Supasawat 1998. All Rights Reserved
</metadata>
<defs>
<font id="DSU_CologneCondenseRegular" horiz-adv-x="0" >
  <font-face 
    font-family="DSU_CologneCondenseRegular"
    font-weight="400"
    font-stretch="normal"
    units-per-em="2048"
    panose-1="2 11 6 4 2 2 2 2 2 4"
    ascent="1638"
    descent="-410"
    x-height="678"
    cap-height="962"
    bbox="-820 -483 1648 1700"
    underline-thickness="102"
    underline-position="-154"
    unicode-range="U+0020-F71D"
  />
<missing-glyph horiz-adv-x="1024" 
d="M128 0v1700h768v-1700h-768zM256 128h512v1444h-512v-1444z" />
    <glyph glyph-name=".notdef" horiz-adv-x="1024" 
d="M128 0v1700h768v-1700h-768zM256 128h512v1444h-512v-1444z" />
    <glyph glyph-name=".null" 
 />
    <glyph glyph-name="nonmarkingreturn" horiz-adv-x="455" 
 />
    <glyph glyph-name="space" unicode=" " horiz-adv-x="455" 
 />
    <glyph glyph-name="exclam" unicode="!" horiz-adv-x="338" 
d="M100 58q0 79 72 79q30 0 49 -24t19 -55t-20.5 -54t-51.5 -23q-68 0 -68 77zM100 894q-3 35 18 64q17 25 56 25q66 0 66 -85l-52 -562q0 -49 -10 -61q-3 -9 -14 -9q-12 0 -17 63z" />
    <glyph glyph-name="quotedbl" unicode="&#x22;" horiz-adv-x="524" 
d="M163 546q-2 -11 -5 -30t-14 -19q-16 0 -20 49l-26 313q-1 12 -1 38q0 86 49 86q54 0 54 -82q0 -22 -4 -42zM386 546q-2 -11 -5 -30t-15 -19t-16 19q-1 13 -3 30l-28 313v36q0 88 49 88q52 0 52 -100v-24z" />
    <glyph glyph-name="numbersign" unicode="#" horiz-adv-x="770" 
d="M582 693q0 -3 -3.5 -14t-3.5 -16q0 -11 25 -11h135q11 2 18 2q13 0 13 -10q0 -4 -3.5 -14t-3.5 -15q-12 -28 -14 -30q-4 -5 -16 -5h-156q-24 0 -27.5 -3t-13.5 -29l-42 -110q-4 -4 -4 -26q0 -11 18 -11h139q6 1 11 1q18 0 18 -13q-1 -7 -2 -10q-4 -11 -7 -13
q-12 -38 -20 -38q-11 1 -20 1h-147q-22 0 -25.5 -3.5t-11.5 -27.5l-58 -170q-5 -11 -9 -22q-4 -6 -20 -6q-6 1 -9 1q-10 3 -10 10q0 19 14 26l52 151q0 4 3.5 15t3.5 15q0 11 -31 11h-124q-21 0 -24.5 -3.5t-11.5 -27.5l-58 -170q-6 -11 -11 -22q-5 -6 -18 -6q-17 0 -17 11
q0 5 4 15q2 5 5 11l54 151q8 16 8 30q0 11 -27 11h-122q-10 -2 -17 -2q-12 0 -12 9q0 6 10 34q4 11 10 26q3 5 15 5h167q11 0 21 27l42 113q0 2 5 12t5 14q0 13 -35 13h-118q-7 -1 -12 -1q-19 0 -19 12q0 2 5 12t5 12l10 32q3 6 12 6q10 -1 19 -1h137q23 0 27 3.5t9 27.5
l56 146q7 30 24 30t17 -11q0 -14 -10 -24l-48 -131q0 -3 -3.5 -14t-3.5 -16q0 -8 10 -9l20 -2h125q23 0 26 4q2 1 11 27l53 146q3 8 9 25q3 5 18 5q20 0 20 -11q0 -12 -12 -24zM329 576q-13 0 -19 -28l-44 -110q-7 -23 -7 -30q0 -9 29 -9h124q22 0 25.5 3t13.5 24l39 115
q1 2 5 15q2 5 2 9q0 12 -18 12h-6q-2 0 -4 -1h-140z" />
    <glyph glyph-name="dollar" unicode="$" horiz-adv-x="770" 
d="M399 980q3 -20 27 -20q73 -7 135 -25q34 -6 41.5 -19.5t7.5 -51.5v-98q0 -18 -14 -18q-10 0 -29 42q-41 141 -147 141q-21 0 -21 -23v-265q0 -44 8 -54q4 -7 48 -26q98 -42 151 -101q62 -69 62 -170q0 -90 -67 -165.5t-156 -93.5q-35 -7 -40.5 -15.5t-5.5 -46.5v-108
q0 -11 -13 -10l-18 1q0 14 -2 41v95q0 29 -24 29q-96 0 -179 39q-12 6 -30.5 16t-23.5 21q-4 16 -4 81v19q-1 12 -1 18q0 87 24 87q19 0 19 -31q22 -141 93 -188q47 -31 102 -31q24 0 24 50v332q0 35 -35 52q-213 78 -213 238q0 85 66 156q63 68 149 82q33 0 33 30v101v13
q-1 8 -1 10q0 22 16 22q20 0 19 -19q-1 -35 -1 -26v-111zM366 877q0 26 -1 31q-4 19 -18 19q-55 0 -97.5 -47t-42.5 -102q0 -94 122 -159q8 -8 22 -8q15 0 15 32v234zM399 70q0 -18 13 -18q19 0 62 24q93 52 93 164q0 114 -122 181q-22 18 -29 18q-17 0 -17 -42v-327z" />
    <glyph glyph-name="percent" unicode="%" horiz-adv-x="1171" 
d="M24 681q0 104 53 194q63 108 163 108q82 0 149 -91q52 -86 52 -211q0 -115 -50 -205q-56 -101 -157 -101q-95 0 -157 108q-53 93 -53 198zM362 672q0 274 -122 274q-133 0 -133 -274q0 -271 133 -271q122 0 122 271zM298 17q-7 -10 -16 -22t-21 -12l-21 -2q-13 0 -13 11
q0 10 22 32l628 922l18 27q10 10 28 10q23 0 23 -13q0 -8 -15 -30zM735 284q0 110 50 200q60 109 159 109q87 0 153 -96q53 -79 53 -213q0 -115 -49 -199q-61 -104 -157 -104q-97 0 -158 108q-51 91 -51 195zM1071 288q0 275 -127 275q-78 0 -111 -105q-22 -70 -22 -170
q0 -275 133 -275q127 0 127 275z" />
    <glyph glyph-name="ampersand" unicode="&#x26;" horiz-adv-x="1080" 
d="M857 133q48 -56 75 -76q39 -28 98 -28q36 0 36 -21q0 -12 -36 -12q-42 0 -96 1l-90 3q-21 0 -106 -2l-78 -2q-21 0 -21 15q0 13 24 13q85 0 85 44q0 14 -17 36q-6 8 -29 33q-21 39 -40 39q-6 0 -20 -15q-87 -90 -158 -133q-84 -50 -172 -50q-115 0 -197 73
q-86 75 -86 189q0 81 43 140q30 42 90 74q53 25 107 50q60 29 60 39q-116 134 -116 233q0 95 85 155q76 52 176 52q107 0 176 -46q81 -53 81 -155q0 -73 -48 -101q-24 -19 -70 -43q-18 -11 -75 -38l-43 -18q-21 -12 -21 -19q0 -5 13 -22q3 -5 10 -13l181 -192q20 -32 35 -32
q9 0 24 17l14 26q24 27 53 74q34 55 34 76q0 44 -68 44h-16q-34 0 -34 17t35 17q16 0 39 -3q54 -7 71 -7q28 0 82.5 5t82.5 5q27 0 27 -14q0 -20 -30 -20q-51 0 -87.5 -26.5t-74.5 -73.5q-23 -29 -60 -83q-57 -57 -57 -85q0 -11 26 -42zM626 223l-235 253q-14 37 -40 37
q-12 0 -44.5 -15t-40.5 -24q-122 -65 -122 -193q0 -95 64.5 -162t159.5 -67q145 0 253 132q13 16 12 29zM451 600q9 0 68 31q112 59 112 168q0 70 -46 116.5t-116 46.5t-115 -35q-50 -39 -50 -107q0 -75 99 -181z" />
    <glyph glyph-name="quotesingle" unicode="'" horiz-adv-x="310" 
d="M98 859q-1 12 -1 38q0 86 49 86q54 0 54 -82q0 -22 -4 -42l-33 -313q-2 -11 -5 -30t-14 -19q-16 0 -20 49z" />
    <glyph glyph-name="parenleft" unicode="(" horiz-adv-x="556" 
d="M231 888q50 55 87 84q49 37 108 68q80 42 102 42q15 0 15 -11q0 -6 -7 -13q-362 -131 -362 -602q0 -470 362 -603q7 -7 7 -10q0 -11 -15 -11q-22 0 -83 31q-55 28 -79 48q-135 81 -222.5 226.5t-87.5 317.5q0 128 44 234q40 98 131 199z" />
    <glyph glyph-name="parenright" unicode=")" horiz-adv-x="556" 
d="M401 137q-85 -144 -223 -226q-16 -17 -80 -48t-85 -31q-13 0 -13 11q0 10 11 10q360 132 360 603t-360 602q-11 0 -11 13q0 11 13 11t53 -18q17 -8 52 -24q106 -53 196 -152q174 -192 174 -433q0 -170 -87 -318z" />
    <glyph glyph-name="asterisk" unicode="*" horiz-adv-x="524" 
d="M281 759q0 -10 88.5 -27t88.5 -62q0 -47 -46 -47q-29 0 -76 57t-61 57q-11 0 -11 -15q46 -126 46 -142q0 -48 -55 -48q-50 0 -50 48q0 26 44 142q0 15 -15 15q-6 0 -75 -78q-32 -36 -61 -36q-48 0 -48 47q0 45 90.5 62t90.5 27t-90.5 27t-90.5 60q0 48 48 48
q31 0 77.5 -58t58.5 -58q15 0 15 14q-44 117 -44 143q0 48 50 48q55 0 55 -48q0 -22 -46 -143q0 -14 11 -14q9 0 76 78q32 38 61 38q46 0 46 -48q0 -49 -86 -58q-91 -11 -91 -29z" />
    <glyph glyph-name="plus" unicode="+" horiz-adv-x="863" 
d="M389 519v297h85v-297h300v-83h-300v-301h-85v301h-300v83h300z" />
    <glyph glyph-name="comma" unicode="," horiz-adv-x="401" 
d="M284 -4q0 -125 -92 -223q-7 -12 -30.5 -33t-35.5 -21q-10 0 -10 15q115 123 115 204q0 43 -49 43q-62 0 -62 65q0 72 72 72q92 0 92 -122z" />
    <glyph glyph-name="hyphen" unicode="-" horiz-adv-x="691" 
d="M72 349v67h547v-67h-547z" />
    <glyph glyph-name="hyphen" unicode="&#x2010;" horiz-adv-x="691" 
d="M72 349v67h547v-67h-547z" />
    <glyph glyph-name="period" unicode="." horiz-adv-x="401" 
d="M133 56q0 77 72 77q61 0 61 -77q0 -75 -63 -75q-70 0 -70 75z" />
    <glyph glyph-name="slash" unicode="/" horiz-adv-x="615" 
d="M546 1047q17 35 30 35q7 1 12 1q18 0 18 -10q0 -1 -12 -26l-536 -1113q-3 -7 -8.5 -18t-16.5 -11h-16q-17 0 -17 8l2 11z" />
    <glyph glyph-name="zero" unicode="0" horiz-adv-x="770" 
d="M50 484q0 170 82 322q99 183 257 183q80 0 153 -57q65 -51 106 -127q72 -135 72 -321q0 -189 -68 -320q-41 -79 -106 -132q-75 -61 -157 -61q-208 0 -302 292q-37 115 -37 221zM575 203q27 96 27 281q0 181 -35 298q-51 171 -178 171q-166 0 -208 -282q-13 -87 -13 -187
q0 -265 74 -386q55 -90 147 -90q131 0 186 195z" />
    <glyph glyph-name="one" unicode="1" horiz-adv-x="770" 
d="M471 174q0 -77 11 -99q17 -34 83 -34h46q24 0 24 -22q0 -19 -24 -19h-419q-28 0 -28 22q0 19 79 19t97 26q12 18 12 101v687q0 31 -21 31q-10 0 -47 -17l-88 -40q-40 -18 -49 -18q-14 0 -14 23q0 12 15.5 19t27.5 12l260 114q14 6 20 4q15 -2 15 -19v-790z" />
    <glyph glyph-name="two" unicode="2" horiz-adv-x="770" 
d="M543 118q61 0 82 14q26 17 35 75q0 35 18 35q16 0 16 -20q-1 -10 -1 -15v-183q0 -24 -33 -24h-555q-33 0 -33 13q0 16 23 43l205 245q43 48 110 126q148 182 148 304q0 90 -58.5 146t-148.5 56q-142 0 -218 -143q-6 -12 -11 -17q-7 -8 -17 -8q-16 0 -16 11q0 18 23 52
q14 20 32 45q93 110 253 110q114 0 196 -63q90 -68 90 -179q0 -89 -58 -174q-27 -40 -130 -139l-261 -252q-29 -28 -29 -50q0 -8 40 -8h298z" />
    <glyph glyph-name="three" unicode="3" horiz-adv-x="770" 
d="M420 576q123 0 202.5 -75t79.5 -197q0 -113 -74 -220q-30 -42 -67 -76q-170 -154 -338 -154q-57 0 -101 22q-56 27 -56 78q0 59 54 59q43 0 76 -58q30 -53 73 -53q101 0 206 90q118 103 118 252q0 114 -69 188.5t-182 74.5q-94 0 -178 -51q-2 0 -13.5 -7.5t-17.5 -7.5
q-17 0 -17 17q0 22 21 30l51 35q64 38 189 119q118 82 118 169q0 59 -43 94t-103 35q-112 0 -185 -104q0 -29 -20 -29q-18 0 -18 19q0 17 25 50q12 16 23 27q78 80 213 80q90 0 153 -41q73 -47 73 -133q0 -58 -53 -106q-24 -22 -105 -68l-119 -68z" />
    <glyph glyph-name="four" unicode="4" horiz-adv-x="770" 
d="M582 126q0 -58 14 -75q16 -20 72 -20q34 0 34 -20q0 -15 -23 -15q-26 0 -84 2l-63 2q-29 0 -96 -2l-70 -2q-24 0 -24 12q0 23 33 23h24q21 0 37 6q35 13 35 70v167q0 29 -12 34q-5 2 -41 2h-329h-17q-11 -1 -16 -1q-17 0 -17 27q0 15 29 53l523 691q9 19 32 19
q20 0 20 -11q0 -7 -8 -17l-509 -668q-28 -28 -28 -41q0 -10 31 -10h291q40 0 45.5 6.5t5.5 49.5v290q0 11 3 15l91 35q17 3 17 -59v-298q0 -33 14 -33h122q12 0 12 -31q0 -17 -14 -17h-100q-23 0 -28.5 -4.5t-5.5 -26.5v-153z" />
    <glyph glyph-name="five" unicode="5" horiz-adv-x="770" 
d="M266 848q-56 -8 -61 -11q-14 -8 -27 -52l-19 -65q0 -5 -3 -18t-3 -19q0 -14 39 -20l57 -3q94 -5 189 -33q149 -44 210 -152q39 -71 39 -146q0 -200 -242 -340q-52 -30 -104 -49q-40 -15 -109 -31q-105 -25 -127 -25q-20 0 -20 16q0 19 26 19q124 0 280 83q80 43 134 121
q57 82 57 169q0 181 -201 234q-147 39 -270 39q-24 0 -24 15q0 22 11 33l80 285q11 40 22.5 48.5t50.5 13.5l355 45q8 5 16 5q13 0 13 -11l-9 -48l-13 -43q-5 -16 -31 -16l-28 -4z" />
    <glyph glyph-name="six" unicode="6" horiz-adv-x="770" 
d="M689 1156q20 0 20 -18q0 -14 -37 -21q-201 -73 -353 -258q-155 -188 -155 -439q0 -144 53 -262q69 -154 195 -154q86 0 142 83.5t56 212.5q0 138 -56 226q-51 80 -142 80q-40 0 -71 -20l-57 -45q-3 2 -4 4q-5 7 -5 13q0 9 8 20q3 4 31 32q53 42 137 42q125 0 200 -101
q69 -91 69 -220q0 -144 -85 -249q-91 -111 -232 -111q-160 0 -262 153q-91 136 -91 304q0 223 179 427q158 180 397 279q53 22 63 22z" />
    <glyph glyph-name="seven" unicode="7" horiz-adv-x="770" 
d="M602 785q17 20 17 41q0 20 -28 20h-438q-48 0 -77 -10q-8 -7 -14 -7q-8 0 -12 24l-4 80q-2 31 22 31h610q48 0 48 -20q0 -8 -10 -30l-428 -955q-10 -35 -29 -35h-25q-9 2 -9 6z" />
    <glyph glyph-name="eight" unicode="8" horiz-adv-x="770" 
d="M294 486q-218 71 -218 240q0 57 31 111t75 86q90 66 219 66q116 0 201 -56q98 -65 98 -176q0 -77 -55 -126q-20 -18 -122 -70l-49 -25q106 -25 175 -88q81 -73 81 -173q0 -130 -101.5 -217t-259.5 -87q-127 0 -218 69q-112 85 -112 200q0 86 66 144q49 43 144 83z
M519 594q87 58 87 161q0 92 -63.5 149.5t-156.5 57.5q-90 0 -146 -54q-66 -52 -66 -134q0 -126 138 -181q14 -10 56 -22.5t60 -12.5q37 0 91 36zM567 81q56 65 56 146q0 66 -39 117.5t-96 75.5q-13 10 -69 29.5t-72 19.5q-8 0 -78 -33q-123 -79 -123 -211q0 -94 65 -159
q36 -36 76 -49q44 -15 94 -15q118 0 186 79z" />
    <glyph glyph-name="nine" unicode="9" horiz-adv-x="770" 
d="M68 -137q0 11 43 30q143 64 268.5 191.5t185.5 272.5q45 109 45 223q0 126 -53 233q-70 140 -191 140q-85 0 -139 -65q-64 -76 -64 -205q0 -105 48 -190q58 -102 155 -102q37 0 108 41q14 0 14 -16q0 -9 -19 -25q-70 -42 -142 -42q-123 0 -202 85t-79 209
q0 141 92.5 243.5t232.5 102.5q72 0 141 -35t114 -89t72 -135q24 -75 24 -155q0 -270 -262 -505q-113 -101 -247 -170q-14 -7 -64 -31t-68 -24q-13 0 -13 18z" />
    <glyph glyph-name="colon" unicode=":" horiz-adv-x="401" 
d="M133 497q0 78 72 78q61 0 61 -78q0 -76 -63 -76q-70 0 -70 76zM133 56q0 77 72 77q61 0 61 -77q0 -75 -63 -75q-70 0 -70 75z" />
    <glyph glyph-name="semicolon" unicode=";" horiz-adv-x="401" 
d="M284 -4q0 -125 -92 -223q-7 -12 -30.5 -33t-35.5 -21q-10 0 -10 15q115 123 115 204q0 43 -49 43q-62 0 -62 65q0 72 72 72q92 0 92 -122zM120 490q0 75 74 75q61 0 61 -75q0 -74 -63 -74q-72 0 -72 74z" />
    <glyph glyph-name="less" unicode="&#x3c;" horiz-adv-x="863" 
d="M801 107l-729 332v76l729 338v-87l-633 -290l633 -282v-87z" />
    <glyph glyph-name="equal" unicode="=" horiz-adv-x="691" 
d="M60 406v68h550v-68h-550zM72 220v68h547v-68h-547z" />
    <glyph glyph-name="greater" unicode="&#x3e;" horiz-adv-x="863" 
d="M707 476l-635 290v87l729 -338v-76l-729 -332v87z" />
    <glyph glyph-name="question" unicode="?" horiz-adv-x="460" 
d="M68 56q0 77 69 77q61 0 61 -77q0 -75 -63 -75q-67 0 -67 75zM100 412l-2 37q-1 23 30 51q8 8 48 36q91 65 125 106q57 68 57 150q0 53 -31 100q-52 52 -100 52q-45 0 -86.5 -66.5t-59.5 -66.5q-42 0 -42 114q0 28 19 39q34 19 120 19q103 0 176.5 -75t73.5 -178
q0 -83 -39 -143q-18 -27 -105 -103l-53 -46q-21 -17 -45 -39q-29 -31 -29 -85v-33q0 -20 -11 -20q-13 0 -26 40z" />
    <glyph glyph-name="at" unicode="@" horiz-adv-x="1140" 
d="M1018 264q-49 -129 -174 -208q-120 -75 -262 -75q-207 0 -347 150q-137 146 -137 355q0 204 139.5 350.5t342.5 146.5q189 0 317 -113q133 -119 133 -305q0 -142 -86 -247q-106 -130 -235 -130q-95 0 -109 76q-76 -76 -162 -76q-75 0 -118 58q-39 52 -39 129
q0 142 81 265q91 138 222 138q111 0 136 -80l19 61h114l-127 -370q-5 -16 -24 -86q-9 -32 -9 -42q0 -29 33 -29q62 0 133 66q114 106 114 269q0 152 -114.5 256t-267.5 104q-185 0 -310.5 -126t-125.5 -311q0 -188 120 -318q123 -133 309 -133q117 0 219.5 61t158.5 164h56z
M683 596q10 30 10 47q0 96 -80 96q-93 0 -168 -173q-64 -147 -64 -256q0 -83 75 -83q105 0 163 176z" />
    <glyph glyph-name="A" unicode="A" horiz-adv-x="985" 
d="M213 174q-8 -25 -12 -42q-7 -28 -7 -45q0 -54 104 -54q38 0 38 -22q0 -15 -36 -15q-22 0 -66 2t-66 2t-72 -2l-57 -2q-16 -2 -26 -2q-26 0 -26 17q0 22 42 22q52 0 77 24q13 13 32 56q1 3 25 65l295 773q17 32 30 32q15 0 19 -27l313 -774q32 -78 44 -97q34 -52 81.5 -52
t47.5 -25q0 -12 -27 -12q-35 0 -114 2l-86 2q-29 0 -98 -2l-74 -2q-27 0 -27 12q0 25 46 25t64 5q36 10 36 39q0 16 -8 40q-4 9 -16 38l-46 118q-23 59 -33.5 68.5t-63.5 9.5h-210q-43 0 -52 -9l-23 -54zM304 406q0 -11 29 -11q17 0 29 2h176h11q7 -1 9 -1q24 0 24 12
q-1 7 -5 24q0 5 -2 9l-106 261q-10 49 -28 49q-15 0 -23 -49z" />
    <glyph glyph-name="B" unicode="B" horiz-adv-x="985" 
d="M198 821v11q1 8 1 12q2 83 -71 83q-16 0 -72 -11q-17 0 -17 15q0 24 70 35q107 17 307 17q107 0 153 -4q180 -16 253 -107q43 -53 43 -117q0 -86 -67 -144q-58 -51 -148 -68q115 -14 193 -85q84 -77 84 -189q0 -135 -118 -215q-54 -37 -120 -49q-49 -9 -131 -9
q-65 0 -214 2l-162 2q-16 0 -48.5 -2t-48.5 -2q-27 0 -27 21q0 16 28 16h12q74 0 90 29q10 18 10 102v657zM319 623q0 -50 13.5 -62.5t64.5 -12.5h81q125 0 190 58q54 48 54 142q0 106 -81 161q-70 47 -181 47q-98 0 -124 -29q-17 -19 -17 -77v-227zM319 198q0 -59 5 -83
q10 -46 42 -65q44 -26 147 -26q66 0 113.5 13.5t86.5 49.5q34 31 57 82q20 46 20 97q0 138 -120 208q-77 45 -244 45h-27h-13q-9 1 -12 1q-39 1 -49 -19q-6 -11 -6 -56v-247z" />
    <glyph glyph-name="C" unicode="C" horiz-adv-x="956" 
d="M892 766q0 -18 -17 -18q-100 194 -293 194q-185 0 -290 -138q-96 -126 -96 -316q0 -167 96 -300q120 -166 290 -166q116 0 188 76q56 84 113 168q16 0 15 -22l-6 -124q-2 -37 -9 -46.5t-43 -27.5q-130 -65 -277 -65q-209 0 -357 149t-148 358q0 214 163 357
q157 138 373 138q130 0 244 -39q30 -10 36 -29q0 -9 5 -50z" />
    <glyph glyph-name="D" unicode="D" horiz-adv-x="1140" 
d="M182 820q0 10 1 21q0 71 -50 71q-14 0 -77 -18q-17 0 -17 18q0 35 198 56q141 15 247 15q238 0 393 -118q194 -147 194 -375q0 -225 -167 -371q-141 -123 -398 -123q-60 0 -196 2l-146 2q-16 0 -47 -2t-47 -2q-29 0 -29 17q0 20 30 20h14q65 0 83 21q14 16 14 74v692z
M304 194q0 -103 32.5 -137.5t134.5 -34.5q216 0 334 124q126 132 126 330q0 214 -131 344.5t-345 130.5q-103 0 -134 -28q-17 -15 -17 -68v-661z" />
    <glyph glyph-name="E" unicode="E" horiz-adv-x="863" 
d="M300 613q0 -49 15 -61q12 -9 64 -9h103q51 0 85 6q21 3 35 38q8 20 17 67q0 27 20 27q16 0 15 -13l-6 -136l6 -143q1 -27 -15 -27q-20 0 -20 25q-15 87 -56 99q-57 11 -166 11h-18q-42 0 -51 -2q-28 -6 -28 -50v-267q0 -96 49 -123q33 -18 141 -18q122 0 165 17
q68 27 104 120q21 53 33 53q17 0 17 -16q0 -11 -4 -37l-27 -166q0 -7 -2 -8h-617q-16 0 -54 -2l-39 -2q-27 0 -27 21q0 20 38 20q88 0 98 44q3 13 3 83v661q0 58 -14 73q-18 20 -87 20q-38 0 -38 17q0 27 27 27q58 0 106 -2l180 -7q84 0 150 2l247 7q21 0 20 -32
q-1 -35 -1 -27v-151q-3 -15 -13 -15q-9 0 -16 12q-3 8 -8 19l-24 43q-13 23 -37 58q-40 43 -143 47q-46 2 -86 2q-90 0 -114 -9q-27 -11 -27 -61v-235z" />
    <glyph glyph-name="F" unicode="F" horiz-adv-x="801" 
d="M178 829q0 56 -14 70q-19 19 -87 19q-38 0 -38 22t27 22q24 0 72.5 -4.5t72.5 -4.5q108 0 196 2l330 7q28 0 28 -57v-106q0 -4 1 -11v-10q0 -41 -17 -41q-12 0 -19 12q-2 4 -8 21q-30 100 -98 129q-46 19 -173 19q-105 0 -132 -10q-19 -10 -19 -72v-223q0 -49 15 -61
q12 -9 64 -9h103q51 0 85 6q21 3 35 38q8 20 17 67q0 27 20 27q16 0 15 -13l-6 -136l6 -143q1 -27 -15 -27q-20 0 -20 25q-15 87 -56 99q-57 11 -166 11h-18q-42 0 -51 -2q-28 -6 -28 -50v-286q0 -69 3 -82q10 -44 98 -44q38 0 38 -20q0 -17 -23 -17q-31 0 -100 2l-74 2
q-31 0 -101 -2l-73 -2q-29 0 -29 17q0 20 38 20q67 0 86 20q15 16 15 69v707z" />
    <glyph glyph-name="G" unicode="G" horiz-adv-x="1140" 
d="M940 774q3 -33 -24 -33q-15 0 -38 51q-29 65 -69 96q-67 52 -186 52q-202 0 -311 -135q-114 -141 -114 -331q0 -185 114 -315q120 -137 332 -137q121 0 176 46q28 19 28 96v157q0 64 -18 82t-82 18q-41 0 -41 20q0 19 34 19q30 0 98 -2l69 -2q28 0 92 2l68 2q23 0 23 -19
t-25 -20l-28 -1q-19 1 -49 -12q-19 -16 -19 -64v-215q0 -9 1 -17q0 -26 -27 -44q-134 -87 -331 -87q-228 0 -373 119q-182 150 -182 367q0 225 184 375q172 141 402 141q138 0 250 -41q42 -15 42 -64q0 -53 -1 -40z" />
    <glyph glyph-name="H" unicode="H" horiz-adv-x="1140" 
d="M300 159q0 -67 3 -82q9 -44 96 -44q40 0 40 -20q0 -17 -27 -17q-30 0 -97 2l-73 2q-31 0 -101 -2l-75 -2q-27 0 -27 17q0 20 37 20q61 0 80.5 16.5t19.5 74.5v704q0 55 -14 70q-19 20 -86 20q-16 0 -22 2q-15 5 -15 20q0 22 27 22q29 0 87 -4.5t87 -4.5q36 0 64 2l108 7
q27 0 27 -22t-40 -22q-61 0 -80 -16t-19 -75v-233q0 -43 6 -50.5t46 -7.5h433q37 0 45 9.5t8 48.5v231q0 58 -14 73q-18 20 -87 20q-19 0 -24 2q-13 5 -13 20q0 22 26 22q36 0 65 -2l107 -7q38 0 67 2l108 7q28 0 28 -22t-43 -22q-61 0 -78.5 -15.5t-17.5 -74.5v-705
q0 -55 13 -70q18 -20 83 -20q43 0 43 -20q0 -17 -28 -17q-30 0 -97 2l-73 2q-31 0 -101 -2l-76 -2q-26 0 -26 17q0 20 37 20q75 0 91 28q10 17 10 98v279q0 41 -6.5 48t-46.5 7h-427q-40 0 -49 -8t-9 -47v-279z" />
    <glyph glyph-name="I" unicode="I" horiz-adv-x="493" 
d="M178 828q0 55 -14 70q-19 20 -87 20q-38 0 -38 22t29 22t86 -4.5t86 -4.5q36 0 65 2l111 7q23 0 23 -22t-38 -22q-63 0 -81 -15q-20 -18 -20 -78v-666q0 -69 3 -82q10 -44 98 -44q38 0 38 -20q0 -17 -23 -17q-31 0 -100 2l-74 2q-31 0 -101 -2l-73 -2q-29 0 -29 17
q0 20 38 20q67 0 86 20q15 16 15 69v706z" />
    <glyph glyph-name="J" unicode="J" horiz-adv-x="493" 
d="M321 182q0 -126 -12 -177q-19 -81 -82 -158q-42 -52 -116 -99q-81 -52 -144 -52q-111 0 -111 81q0 28 22 47t50 19q36 0 65 -42.5t55 -42.5q56 0 107 68q33 44 43 133q5 44 5 146v720q0 57 -15 73q-19 20 -88 20q-17 0 -22 2q-12 5 -12 20q0 22 23 22q36 0 65 -2l107 -7
q35 0 65 2l112 7q29 0 29 -22t-46 -22q-71 0 -88 -27q-12 -19 -12 -99v-610z" />
    <glyph glyph-name="K" unicode="K" horiz-adv-x="1018" 
d="M178 828q0 55 -14 70q-19 20 -87 20q-38 0 -38 22t29 22t86 -4.5t86 -4.5q36 0 65 2l111 7q23 0 23 -22t-38 -22q-63 0 -81 -15q-20 -18 -20 -78v-319q0 -22 12 -22q5 1 17 9l286 292q30 30 45 47q33 36 33 54q0 32 -50 32q-20 0 -28 2q-19 5 -19 20q0 22 27 22
q35 0 64 -2l109 -7q31 0 56 2l94 7q24 0 24 -22q0 -15 -17 -20q-7 -2 -28 -2h-40q-61 -2 -134 -58q-26 -20 -64 -59l-164 -166q-9 -8 -22 -21q-15 -16 -15 -23q0 -25 27 -48l277 -349q27 -34 67 -82q27 -33 41 -44q37 -30 85 -35q39 0 39 -20q0 -17 -33 -17t-108 2l-82 2
q-30 0 -96 -2l-83 -2q-20 0 -20 15q0 18 44 18q36 0 49 4q29 9 29 35q0 19 -19 47q-4 6 -28 36l-5 6l-242 303q-11 17 -15 22q-12 15 -22 15q-7 0 -23.5 -16t-18.5 -23q-11 -9 -30 -26.5t-19 -34.5v-238q0 -69 3 -82q10 -44 98 -44q38 0 38 -20q0 -17 -23 -17q-31 0 -100 2
l-74 2q-31 0 -101 -2l-73 -2q-29 0 -29 17q0 20 38 20q67 0 86 20q15 16 15 69v706z" />
    <glyph glyph-name="L" unicode="L" horiz-adv-x="739" 
d="M300 207q0 -102 17 -129q26 -41 122 -41q112 0 172 50q36 30 78 126q3 9 5 11q6 10 15 10q13 0 13 -21q0 -23 -10 -100q-5 -38 -5 -61q-1 -12 -4 -36q-3 -20 -35 -20q-78 0 -258 2l-194 2q-26 0 -85 -2l-65 -2q-27 0 -27 17q0 24 38 24q61 0 78 14q21 16 21 73v704
q0 55 -14 70q-19 20 -86 20q-16 0 -22 2q-15 5 -15 20q0 22 27 22q29 0 87 -4.5t87 -4.5q36 0 64 2l108 7q27 0 27 -22t-40 -22q-61 0 -80 -16t-19 -75v-620z" />
    <glyph glyph-name="M" unicode="M" horiz-adv-x="1233" 
d="M619 213l316 727q10 22 44 22h185q30 0 30 -18q0 -27 -38 -26q-32 1 -27 1q-32 0 -41 -14q-13 -13 -13 -67v-22q0 -11 1 -20v-661q0 -66 15.5 -84t62.5 -18h13q31 0 31 -22q0 -15 -27 -15q-25 0 -84 2l-65 2q-31 0 -105 -2l-77 -2q-31 0 -31 15q0 22 35 22h13q79 0 92 49
q5 19 5 44v17q-1 11 -1 16v698h-9l-344 -801q-3 -8 -8 -17.5t-16 -9.5q-14 0 -20 29l-305 782h-9l-46 -635q-6 -81 9 -121q19 -51 93 -51q49 0 49 -22q0 -15 -35 -15q-23 0 -69 2t-69 2q-24 0 -79 -2l-58 -2q-26 0 -26 15q0 22 39 22q60 0 80 29q11 16 16 85l48 682
q4 58 -9.5 73.5t-73.5 15.5q-39 0 -39 26q0 18 31 18h195q20 0 28 -14q2 -5 10 -32z" />
    <glyph glyph-name="N" unicode="N" horiz-adv-x="1080" 
d="M877 790q0 70 -3 83q-10 45 -98 45q-39 0 -39 17q0 27 29 27q27 0 49 -2l83 -7q29 0 52 2l84 7q24 0 24 -27q0 -17 -38 -17q-74 0 -91 -28q-11 -18 -11 -100v-782q1 -8 1 -13q0 -17 -11 -17q-23 0 -35 35l-648 844v-733q0 -55 13 -70q18 -21 83 -21h13q28 0 28 -16
q0 -21 -26 -21q-25 0 -79 2l-59 2q-21 0 -73 -2l-57 -2q-29 0 -29 21q0 16 27 16h11q67 0 86 20q15 16 15 69v705q0 56 -14 71q-19 20 -87 20q-38 0 -38 17q0 27 37 27h193q20 -6 36 -22q10 -10 26 -35l546 -707v592z" />
    <glyph glyph-name="O" unicode="O" horiz-adv-x="1204" 
d="M596 983q223 0 377 -135q161 -141 161 -362q0 -222 -160 -366q-154 -139 -378 -139q-212 0 -373 145q-165 150 -165 360q0 209 166 356q160 141 372 141zM760 908q-75 36 -160 36q-190 0 -306 -145q-98 -123 -98 -313q0 -201 104 -324q116 -138 300 -138q178 0 295 147
q98 123 98 315q0 94 -23 171q-25 84 -77.5 147.5t-132.5 103.5z" />
    <glyph glyph-name="P" unicode="P" horiz-adv-x="863" 
d="M176 828q0 55 -14 70q-19 20 -86 20q-16 0 -22 2q-15 5 -15 20q0 22 27 22q33 0 60 -2l101 -7q52 0 93 2l154 7q132 0 207 -54q111 -80 111 -210q0 -122 -88 -202t-211 -80q-36 0 -65 10l-72 25q-10 5 -35 5q-23 0 -23 -25v-272q0 -69 3 -82q10 -44 98 -44q39 0 39 -20
q0 -17 -26 -17q-29 0 -86 2t-86 2q-43 0 -93 -2l-81 -2q-29 -1 -29 17q0 20 39 20q73 0 90 28q10 17 10 98v669zM298 573v-19q-1 -12 -1 -18q0 -32 24 -46q55 -32 124 -32q96 0 157 67t61 164q0 127 -81 188q-56 56 -174 56q-75 0 -95 -30q-15 -23 -15 -104v-226z" />
    <glyph glyph-name="Q" unicode="Q" horiz-adv-x="1204" 
d="M58 476q0 219 166 366q160 141 382 141q221 0 374 -143q156 -147 156 -366q0 -184 -130 -325q-126 -137 -310 -168q-14 -2 -28 -5q-16 -6 -16 -24q0 -56 83 -126q101 -85 231 -85q69 0 124 19q20 13 29 13q17 0 17 -19q0 -29 -95 -51q-74 -17 -116 -17q-143 0 -264 67
q-148 83 -148 185q0 23 10 38q-199 38 -327 166q-138 139 -138 334zM896 168q99 128 99 310q0 190 -103 321q-114 145 -299 145q-177 0 -295 -143q-100 -121 -100 -306q0 -181 106 -324q117 -158 296 -158q176 0 296 155z" />
    <glyph glyph-name="R" unicode="R" horiz-adv-x="894" 
d="M178 827q0 56 -14 71q-19 20 -87 20q-38 0 -38 17q0 27 29 27q31 0 56 -2l92 -7q58 0 103 2l165 7q119 0 199 -57q91 -64 91 -179q0 -102 -74 -166q-66 -57 -172 -72q40 -7 70 -55q22 -35 28 -47l123 -240q13 -26 31 -61q33 -52 89 -52q39 0 39 -22q0 -15 -29 -15h-161
q-20 0 -33 16q-3 3 -22 34l-150 303q-31 62 -48 84q-28 36 -123 36q-24 0 -33 -10t-9 -60v-240q0 -69 3 -82q10 -44 98 -44q38 0 38 -20q0 -17 -23 -17q-31 0 -100 2l-74 2q-31 0 -101 -2l-73 -2q-29 0 -29 17q0 20 38 20q67 0 86 20q15 16 15 69v705zM300 528q0 -27 40 -27
q7 0 20 1t19 1q131 1 195 52q69 54 69 154q0 218 -223 218q-83 0 -101.5 -19t-18.5 -103v-277z" />
    <glyph glyph-name="S" unicode="S" horiz-adv-x="739" 
d="M304 474q-97 41 -151 93q-68 65 -68 155q0 118 91 192q84 69 205 69q131 0 210 -32q22 -9 22 -57q0 -29 4 -65l6 -55q0 -19 -17 -19q-21 0 -26 35q-52 163 -201 163q-83 0 -138 -39q-63 -44 -63 -124q0 -87 99 -150q20 -13 174 -79q43 -19 81 -41q88 -52 126 -140
q20 -49 20 -99q0 -96 -66 -176q-63 -75 -157 -104q-63 -20 -134 -20q-131 0 -232 60q-21 16 -21 72v15q0 75 4 118q0 33 23 33t23 -52q25 -216 229 -216q90 0 157 54q71 58 71 146q0 85 -55 144q-42 45 -134 84z" />
    <glyph glyph-name="T" unicode="T" horiz-adv-x="894" 
d="M509 159q0 -66 4 -82q11 -44 98 -44q39 0 39 -20q0 -17 -24 -17q-32 0 -102 2l-73 2q-31 0 -101 -2l-75 -2q-26 0 -26 17q0 20 39 20q75 0 91 28q10 17 10 98v716q0 45 -33 44q-41 -1 -37 -1q-113 0 -159 -21q-37 -17 -71 -61l-56 -76q-9 -12 -20 -12q-13 0 -13 17
q0 20 8 34l62 202q4 21 19 21q13 0 15 -12.5t3 -23.5q3 -17 27 -22q12 -3 27 -3q40 1 33 1h557h17q11 -1 17 -1q47 0 61 32q8 19 9 21q5 8 14 8q16 0 16 -29q0 -5 -1 -14t-1 -13l-8 -188q-1 -27 -20 -27q-12 0 -17 23q-11 36 -46 104q-32 40 -122 40h-90q-54 0 -62.5 -9
t-8.5 -65v-685z" />
    <glyph glyph-name="U" unicode="U" horiz-adv-x="1080" 
d="M888 773q0 85 -14 111q-17 28 -56 31l-65 5q-16 5 -16 20q0 22 33 22q28 0 51 -2l87 -7q21 0 61.5 4.5t60.5 4.5q32 0 32 -22t-50 -22q-79 0 -79 -100v-508q0 -93 -11 -133q-16 -60 -76 -111q-99 -85 -288 -85q-183 0 -283 70q-64 43 -84 114q-13 45 -13 145v518
q0 55 -14 70q-18 20 -83 20q-19 0 -25 2q-15 5 -15 20q0 22 27 22q29 0 87 -4.5t87 -4.5q36 0 65 2l109 7q25 0 25 -22t-38 -22q-62 0 -82 -17t-20 -76v-467q0 -185 32 -238q61 -101 249 -101q169 0 254 86q52 53 52 205v463z" />
    <glyph glyph-name="V" unicode="V" horiz-adv-x="985" 
d="M799 796q21 51 21 79q0 43 -65 43h-17q-51 0 -51 17q0 27 33 27q23 0 68 -4.5t67 -4.5t65 4.5t63 4.5q22 0 22 -22t-39 -22t-61 -20q-27 -24 -59 -102l-318 -772q-8 -43 -22 -43q-12 0 -30 43l-330 792q-24 57 -37 72q-27 30 -76 30q-14 0 -19 1q-22 4 -22 23q0 20 32 20
q35 0 62 -2l102 -7q24 0 71 4.5t70 4.5q29 0 29 -20q0 -14 -29 -24h-17q-63 0 -63 -24q0 -12 20 -60l277 -658z" />
    <glyph glyph-name="W" unicode="W" horiz-adv-x="1418" 
d="M561 13q-8 -17 -10 -20q-8 -12 -19 -12t-18 12q-3 5 -8 20l-362 786q-36 78 -53 95q-24 24 -61.5 24t-37.5 24q0 20 21 20q32 0 58 -2l93 -7q32 0 57 2l93 7q28 0 28 -22t-38 -22q-60 0 -60 -32q0 -15 13 -46q5 -13 12 -29l307 -658l113 238q18 38 18 60q0 29 -29 90
l-130 275q-11 21 -33 65q-25 37 -59 37h-14q-30 0 -30 22t24 22q31 0 56 -2l92 -7q25 0 75.5 4.5t75.5 4.5q24 0 24 -27q0 -17 -46 -17q-51 0 -51 -35q0 -19 25 -74l98 -215l101 217q28 60 28 77q0 30 -45 30t-45 17q0 27 31 27q18 0 54.5 -4.5t54.5 -4.5q23 0 42 2l70 7
q21 0 21 -22t-46 -22q-50 0 -82 -42q-8 -11 -44 -86l-70 -147q-9 -18 -23 -48.5t-14 -51.5q0 -11 11 -40l17 -45l133 -294l264 635q2 5 12 38q8 27 8 40q0 41 -61 41h-16q-26 0 -26 22t26 22q24 0 43 -2l71 -7q22 0 41 2l72 7q27 0 27 -27q0 -17 -40 -17q-35 0 -57 -22
q-13 -13 -25.5 -35t-32.5 -71l-319 -773q-12 -28 -22 -28q-13 0 -23 18q-3 7 -13 30l-167 366z" />
    <glyph glyph-name="X" unicode="X" horiz-adv-x="985" 
d="M288 176q-20 -28 -34 -51q-23 -39 -23 -57q0 -35 52 -35h31q55 0 55 -25q0 -12 -22 -12h-14q-26 0 -89 2l-66 2q-26 0 -90 -2l-82 -2q-14 0 -14 12q0 25 37 25h20q34 0 58 13q35 18 88 85q10 12 45 57l176 232q23 38 23 49q0 17 -27 54l-181 247q-12 17 -37 49
q-34 44 -46 57q-31 33 -59 39q-18 3 -48 3q-21 0 -29 2q-20 5 -20 20q0 22 32 22q30 0 55 -2l95 -7q48 0 87 2l147 7q28 0 28 -22t-45 -22h-25q-65 0 -65 -32q0 -11 35 -60l188 -261l157 217q54 75 54 104q0 32 -57 32h-16q-24 0 -32 2q-19 5 -19 20q0 22 33 22q40 0 73 -2
l123 -7q24 0 70.5 4.5t68.5 4.5t22 -27q0 -17 -39 -17q-74 0 -118 -30q-38 -26 -89 -86q-21 -25 -77 -102l-87 -120q-12 -12 -16 -17q-14 -18 -14 -35q0 -13 23 -44l285 -389q15 -21 42 -49q18 -13 53 -13q41 0 41 -25q0 -14 -15 -13q-29 1 -20 1q-34 0 -110 2l-82 2
q-25 0 -83 -2l-64 -2q-31 0 -31 15q0 23 43 22q33 -1 32 -1q55 0 55 34q0 13 -18 40q-9 11 -29 38l-207 288z" />
    <glyph glyph-name="Y" unicode="Y" horiz-adv-x="1018" 
d="M766 790q19 29 26 42q17 31 17 47q0 39 -68 39h-17q-43 0 -43 15q0 29 35 29q30 0 53 -2l88 -7q28 0 52 2q82 7 90 7q31 0 31 -27q0 -17 -47 -17q-57 0 -108 -55q-23 -25 -76 -104l-189 -283q-34 -51 -39 -66q-6 -18 -6 -77v-174q0 -66 4 -82q11 -44 99 -44q39 0 39 -20
q0 -17 -26 -17q-30 0 -99 2l-75 2q-29 0 -99 -2l-75 -2q-29 0 -29 17q0 20 43 20q66 0 84 20q14 16 14 71v228q0 58 -12 83q-7 14 -30 49l-209 312q-45 68 -64 86q-37 36 -97 36h-19q-22 3 -22 22q0 22 30 22q29 0 52 -2l85 -7q44 0 80 2l132 7q30 0 30 -20q0 -24 -43 -24
h-21q-54 0 -54 -30q0 -14 15 -40l21 -37l237 -342z" />
    <glyph glyph-name="Z" unicode="Z" horiz-adv-x="925" 
d="M663 869q20 17 20 36q0 15 -32 14q-7 0 -16 -1h-236q-112 0 -171 -51q-45 -56 -89 -112q-13 0 -13 15q0 6 9 41l43 168l9.5 28.5t19.5 19.5q15 0 20 -26q2 -14 17 -35q12 -4 43 -4h537q31 0 31 -16q0 -10 -9 -15l-591 -831q-24 -34 -24 -42q0 -14 26 -14q21 2 26 2h293
q119 0 171 31q60 36 83 171q5 13 16 13q19 0 19 -26q0 -4 -1 -12t-1 -12v-150q0 -13 1 -23q0 -29 -19 -35q-7 -3 -46 -3h-706q-37 0 -37 13q0 7 12 24z" />
    <glyph glyph-name="bracketleft" unicode="[" horiz-adv-x="369" 
d="M87 1030q0 52 48 52h186q30 0 30 -24q0 -20 -30 -19q-31 1 -23 1h-52q-42 0 -53.5 -13t-11.5 -57v-13q0 -7 1 -13v-933q0 -61 6 -79q8 -13 41 -13h59h16q9 1 12 1q35 0 35 -20t-30 -20h-186q-48 0 -48 44v1106z" />
    <glyph glyph-name="backslash" unicode="\" horiz-adv-x="801" 
d="M109 1082h94l399 -1082h-89z" />
    <glyph glyph-name="bracketright" unicode="]" horiz-adv-x="369" 
d="M275 -76q0 -44 -48 -44h-188q-28 0 -28 20q0 21 34 20q36 -1 27 -1h60q33 0 42 15q4 16 4 79v948q0 9 1 20q0 37 -7 49q-10 10 -38 10h-66h-13q-7 -1 -10 -1q-34 0 -34 19q0 24 28 24h188q48 0 48 -50v-1108z" />
    <glyph glyph-name="asciicircum" unicode="^" horiz-adv-x="863" 
d="M68 225l331 728h75l333 -728h-85l-286 630l-289 -630h-79z" />
    <glyph glyph-name="underscore" unicode="_" horiz-adv-x="798" 
d="M785 -135v-78h-785v78h785z" />
    <glyph glyph-name="grave" unicode="`" horiz-adv-x="310" 
d="M98 859q-1 12 -1 38q0 86 49 86q54 0 54 -82q0 -22 -4 -42l-33 -313q-2 -11 -5 -30t-14 -19q-16 0 -20 49z" />
    <glyph glyph-name="a" unicode="a" horiz-adv-x="739" 
d="M403 375q38 18 46.5 30.5t8.5 52.5v70q0 74 -12 99q-20 41 -84 41q-125 0 -180 -130q-5 -12 -15 -32q-11 -16 -28 -22q-32 -24 -67 -24q-20 0 -20 24q0 43 66 109q128 105 279 105q87 0 139 -44q30 -25 30 -76v-17q-1 -12 -1 -18v-365q0 -122 54 -122q23 0 70 39
q11 0 11 -10q0 -11 -15 -27q-4 -4 -23 -21q-54 -45 -108 -45q-39 0 -61 33q-6 8 -44 73q-130 -117 -251 -117q-59 0 -99 32q-43 35 -43 92q0 71 81 132q48 36 146 82zM292 288q-120 -60 -120 -144q0 -92 107 -92q88 0 141 64q38 38 38 115v90q2 15 2 25q0 20 -11 20
q-5 0 -17 -8z" />
    <glyph glyph-name="b" unicode="b" horiz-adv-x="863" 
d="M225 635q0 -20 9 -20q4 0 11 6.5t10 7.5q80 37 108 47q62 22 113 22q146 0 243 -95t97 -241q0 -169 -122 -277q-117 -104 -288 -104q-68 0 -117 21q-9 4 -101 48q-14 0 -23 -14q-9 -17 -25 -52q-10 -17 -22 -17q-18 0 -18 20q0 8 4 21l5 16q9 44 9 115v742v12q1 9 1 12
q2 78 -63 78h-12q-27 0 -27 16q0 15 22 15q80 15 137 48q22 20 35 20q14 0 14 -25v-422zM225 178q0 -50 3 -65q14 -71 96 -94q38 -11 82 -11q137 0 218 101q76 93 76 233q0 123 -74 210q-79 92 -200 92q-106 0 -175 -53q-27 -21 -27 -59v-17q0 -9 1 -18v-319z" />
    <glyph glyph-name="c" unicode="c" horiz-adv-x="709" 
d="M639 497q-8 0 -72 86.5t-129 86.5q-85 0 -157 -64q-113 -101 -113 -250q0 -127 80 -220q83 -97 208 -97q67 0 106 18q35 15 86 63q7 6 12 6q2 -1 3 -2q7 -7 7 -13q0 -15 -47 -55q-88 -75 -224 -75q-144 0 -245.5 101.5t-101.5 244.5q0 154 126 265q121 106 277 106
q116 0 189 -54q12 -7 12 -33q0 -6 -1 -17.5t-1 -17.5q0 -7 1.5 -22t1.5 -22q0 -35 -18 -35z" />
    <glyph glyph-name="d" unicode="d" horiz-adv-x="863" 
d="M737 124q0 -58 28 -58q14 0 40 26t31 26q7 0 7 -8q0 -5 -3 -10v-19q0 -22 -29 -29l-122 -48q-31 -12 -35 -12q-9 0 -12 22l-3 23q0 48 -13 48q-148 -104 -239 -104q-143 0 -240 107q-95 104 -95 248t111 248q127 118 263 114q37 -1 87 -11q35 -7 80 -24q18 -9 26 -9
q14 0 14 30q0 5 -1 14.5t-1 14.5v167v11q1 8 1 12q2 80 -59 80h-13q-28 0 -28 16q0 15 22 15q79 15 139 48q16 20 29 20q15 0 15 -25v-933zM631 494q0 44 -5 67q-15 70 -102 96q-46 13 -86 13q-121 -13 -195.5 -99.5t-74.5 -208.5q0 -127 69 -216q76 -98 199 -98
q122 0 179 72q16 20 16 54v320z" />
    <glyph glyph-name="e" unicode="e" horiz-adv-x="770" 
d="M231 420q-41 0 -49 -5q-14 -8 -14 -44q0 -137 81 -227q85 -94 220 -94q74 0 133 30q47 33 94 67q11 0 11 -10q0 -11 -23 -36t-36 -33q-95 -87 -245 -87q-148 0 -249.5 103.5t-101.5 251.5q0 162 111 258q121 104 276 104q146 0 223 -98q56 -71 56 -155q0 -7 -1 -11
q-4 -14 -19 -14h-467zM378 456q109 0 157 12q59 15 59 60q0 44 -40 95q-53 47 -134 47q-128 0 -204 -105q-11 -15 -23 -40q-15 -31 -15 -49q0 -20 37 -20h163z" />
    <glyph glyph-name="f" unicode="f" horiz-adv-x="460" 
d="M240 157v-25q-1 -16 -1 -24q0 -70 71 -77q8 -1 24.5 -4t16.5 -16q0 -15 -18 -15q-26 0 -87 2l-64 2q-25 0 -81 -2l-62 -2q-20 0 -20 12q0 16 15 20q11 1 28 3q72 7 72 82v22q-1 15 -1 22v433q0 40 -46 39q-4 0 -11 -1h-8q-27 0 -27 15q0 9 36 25q36 8 46 38q5 15 5 64
q15 153 68 209q99 103 216 103q37 0 77 -12q57 -17 57 -48q0 -16 -13 -50q-15 -37 -27 -37t-27 13q-9 9 -21 22q-34 39 -43 46q-27 22 -59 22q-116 0 -116 -214v-76q0 -52 5 -59q8 -11 55 -11h120q21 0 21 -28q0 -22 -23 -22q-11 1 -17 1h-109q-34 0 -39 -2q-13 -5 -13 -31
v-439z" />
    <glyph glyph-name="g" unicode="g" horiz-adv-x="801" 
d="M740 639q36 0 36 -33q1 -9 1 -14q0 -9 -3 -12q-6 -3 -31 -3l-27 -1q-5 0 -15.5 1t-15.5 1q-33 0 -33 -13q0 -4 5 -15t5 -12q21 -39 21 -97q0 -96 -77 -166t-220 -70q-72 -9 -117 -27q-11 -3 -30 -12q-16 -12 -16 -29q0 -48 91 -48h164q123 0 185 -28q102 -46 102 -133
q0 -137 -151 -214q-123 -63 -272 -63q-121 0 -205 45q-104 44 -104 128q0 72 85 110l45 27q50 30 50 41q0 18 -31 37q-21 17 -47 42q-37 36 -37 47q0 14 13 18q46 14 88 30q70 27 70 39q-169 102 -169 230q0 116 93 187q85 66 204 66q85 0 157 -38q40 -21 90 -21h96zM273 -8
q-60 -34 -85 -59q-42 -41 -42 -90q0 -73 69 -117t160 -44q100 0 182 39q106 50 106 142q0 129 -196 129h-194zM565 455q0 80 -42 143q-48 72 -124 72q-84 0 -136 -67q-47 -62 -47 -148t41 -150q48 -73 130 -73q89 0 137 70q41 60 41 153z" />
    <glyph glyph-name="h" unicode="h" horiz-adv-x="863" 
d="M251 606q6 -15 15 -15q12 0 17 9q98 98 224 98q127 0 181 -75q28 -40 37 -106q6 -43 6 -114v-246v-24q-1 -15 -1 -23q0 -72 55 -78q28 -3 43 -4q16 -4 16 -17q0 -15 -20 -15q-25 0 -83 2l-60 2q-26 0 -86 -2l-63 -2q-19 0 -19 12q0 16 14 20l29 3q71 7 71 83v21
q-1 15 -1 22v264q0 60 -3 82q-6 42 -27 73q-47 68 -145 68q-93 0 -151 -64q-49 -54 -49 -142v-319q0 -43 10 -60q14 -23 60 -28q26 -3 34 -5q11 -5 11 -15q0 -15 -17 -15q-26 0 -85 2l-61 2q-26 0 -84 -2l-63 -2q-23 0 -23 12q0 16 14 20l29 3q71 7 71 83v21q-1 15 -1 22
v723v11q1 8 1 12q2 80 -60 80h-13q-28 0 -28 16q0 15 22 15q80 15 139 48q13 20 33 20q11 0 11 -14v-462z" />
    <glyph glyph-name="i" unicode="i" horiz-adv-x="401" 
d="M266 157v-25q-1 -16 -1 -24q0 -70 54 -76q28 -3 43 -4q17 -4 17 -17q0 -15 -21 -15q-24 0 -82 2l-63 2q-24 0 -72.5 -2t-72.5 -2q-22 0 -22 12q0 23 43 23q71 7 71 77v24q-1 17 -1 25v288q0 82 -15 101q-10 12 -46 12h-21q-19 0 -19 9q0 21 37 29q84 31 130 82
q18 20 26 20q15 0 15 -26v-515zM146 905q0 30 19 53t48 23q68 0 68 -73q0 -79 -70 -79q-65 0 -65 76z" />
    <glyph glyph-name="j" unicode="j" horiz-adv-x="338" 
d="M242 -24q0 -133 -46 -201q-50 -74 -144 -133q-25 -23 -41 -23q-9 0 -9 12q0 15 15 22q66 54 90 98q28 50 28 129v565q0 82 -17 101q-11 12 -46 12h-20q-15 0 -15 9q0 23 33 29q88 33 128 82l12 12q8 8 17 8q15 0 15 -26v-696zM120 905q0 76 68 76q67 0 67 -73
q0 -79 -73 -79q-28 0 -46 25q-16 22 -16 51z" />
    <glyph glyph-name="k" unicode="k" horiz-adv-x="834" 
d="M251 157v-19q-1 -13 -1 -19q0 -43 10 -60q16 -26 89 -31q17 -4 17 -17q0 -15 -19 -15q-25 0 -85 2l-64 2q-24 0 -82 -2l-64 -2q-19 0 -19 12q0 16 14 20l29 3q71 7 71 83v21q-1 15 -1 22v722v11q1 8 1 12q1 81 -62 81h-12q-27 0 -27 16q0 15 22 15q85 17 137 48
q17 20 35 20q11 0 11 -25v-671q0 -34 10 -34q4 1 10 7l8 7l227 177q32 25 37 33q24 21 24 39q0 29 -48 28q-36 -1 -26 -1q-14 0 -18 1q-17 4 -17 19q0 16 27 16h281q26 0 26 -15q0 -19 -27 -19q-55 0 -99 -24q-35 -19 -84 -59l-113 -92q-41 -33 -41 -43q0 -6 11 -20
l233 -297q21 -26 36 -42q35 -36 77 -36q31 0 31 -23q0 -12 -13 -12h-11q-35 0 -78 1l-71 3q-16 0 -83 -2l-63 -2q-7 -1 -11 -1q-12 0 -12 9q0 27 23 27q32 0 41 2q23 5 23 25q0 18 -38 68l-144 188q-32 42 -46 42q-23 0 -33 -23q-36 -24 -42.5 -35t-6.5 -54v-87z" />
    <glyph glyph-name="l" unicode="l" horiz-adv-x="401" 
d="M251 119q0 -43 10 -60q14 -23 60 -28q26 -3 34 -5q11 -5 11 -15q0 -15 -17 -15q-26 0 -85 2l-61 2q-26 0 -84 -2l-63 -2q-23 0 -23 12q0 16 14 20l29 3q71 7 71 83v21q-1 15 -1 22v723v11q1 8 1 12q2 80 -60 80h-13q-28 0 -28 16q0 15 22 15q80 15 139 48q13 20 33 20
q11 0 11 -14v-949z" />
    <glyph glyph-name="m" unicode="m" horiz-adv-x="1263" 
d="M144 445q0 85 -16 101q-10 12 -43 12h-19q-20 0 -20 9q0 21 35 29q83 32 126 82q23 20 27 20q15 0 15 -26v-19q-1 -13 -1 -20q0 -53 11 -53q133 118 238 118q76 0 124 -42q36 -47 72 -93q122 135 240 135q107 0 166 -72q29 -36 39 -98q5 -33 5 -108v-263v-25
q-1 -16 -1 -24q0 -70 55 -76q29 -3 42 -4q17 -4 17 -17q0 -15 -17 -15q-27 0 -87 2l-61 2q-25 0 -83 -2l-62 -2q-21 0 -21 12q0 16 15 20q11 1 26 3q73 7 73 83v21q-1 15 -1 22v281q0 88 -20 127q-37 71 -122 71q-12 0 -17 -1q-41 -2 -71 -16t-60 -43q-35 -34 -44 -65
q-6 -21 -6 -79v-275v-25q-1 -16 -1 -24q0 -70 54 -76q28 -3 42 -4q16 -4 16 -17q0 -15 -19 -15q-25 0 -83 2l-63 2q-25 0 -83 -2l-64 -2q-21 0 -21 12q0 16 17 20q12 1 30 3q71 7 71 83v21q-1 15 -1 22v263q0 107 -26 145q-31 71 -115 71q-11 0 -16 -1q-43 -3 -72 -15
q-87 -39 -106 -105q-9 -30 -9 -83v-275v-25q-1 -16 -1 -24q0 -70 55 -76q29 -3 42 -4q17 -4 17 -17q0 -15 -15 -15q-25 0 -74.5 2t-74.5 2q-24 0 -73 -2t-73 -2q-21 0 -21 12q0 16 14 20q11 1 27 3q73 7 73 83v21q-1 15 -1 22v288z" />
    <glyph glyph-name="n" unicode="n" horiz-adv-x="863" 
d="M146 445q0 84 -13 101q-14 12 -46 12h-19q-20 0 -20 9q0 22 37 29q91 36 126 82q15 20 29 20q11 0 11 -14v-117q152 131 255 131q117 0 181 -85q33 -44 43 -103q5 -30 5 -109v-244v-25q-1 -16 -1 -24q0 -70 71 -77q8 -1 24.5 -4t16.5 -16q0 -15 -20 -15q-25 0 -82 2
l-61 2q-26 0 -86 -2l-61 -2q-21 0 -21 12q0 23 43 23q72 6 72 79v23q-1 16 -1 24v246q0 113 -29 153q-51 70 -145 70q-88 0 -154 -68q-50 -52 -50 -142v-297q0 -43 10 -60q14 -23 60 -28q26 -3 34 -5q11 -5 11 -15q0 -15 -17 -15q-26 0 -85 2l-61 2q-26 0 -84 -2l-63 -2
q-23 0 -23 12q0 16 14 20l29 3q71 7 71 83v21q-1 15 -1 22v288z" />
    <glyph glyph-name="o" unicode="o" horiz-adv-x="863" 
d="M52 347q0 141 108 249q102 102 278 102q156 0 261 -90q119 -102 119 -261q0 -157 -111 -261.5t-269 -104.5q-161 0 -272 102q-114 105 -114 264zM700 333q0 131 -65 226q-74 109 -199 109q-123 0 -199 -99q-69 -91 -69 -217q0 -128 70 -228q79 -113 201 -113
q120 0 195 106q66 94 66 216z" />
    <glyph glyph-name="p" unicode="p" horiz-adv-x="894" 
d="M146 445q0 84 -13 101q-14 12 -46 12h-19q-20 0 -20 9q0 22 37 29q91 36 126 82q15 20 29 20q11 0 11 -14v-93q146 107 262 107q62 0 128 -31.5t107 -75.5q92 -98 92 -244q0 -161 -111.5 -263.5t-273.5 -102.5q-42 0 -80 9q-13 3 -75 23q-5 0 -17.5 4.5t-16.5 4.5
q-17 0 -16 -30q1 -7 1 -16v-205q0 -42 10 -59q15 -26 60 -30q45 0 45 -18q0 -16 -17 -16l-146 3l-147 -3q-23 0 -23 16q0 18 29 18h14q71 7 71 85v21q-1 13 -1 20v637zM455 631q-126 0 -174 -83q-30 -26 -30 -107v-236q0 -103 50 -153q55 -44 137 -44q128 0 208 97
q76 92 76 222q0 137 -78.5 220.5t-188.5 83.5z" />
    <glyph glyph-name="q" unicode="q" horiz-adv-x="863" 
d="M735 -192v-24q-1 -15 -1 -23q0 -73 71 -79q41 0 41 -18q0 -16 -17 -16l-146 3l-145 -3q-23 0 -23 16q0 18 31 18h15q69 6 69 81v23q-1 14 -1 22v190q1 8 1 15q0 24 -11 24q-5 0 -26 -10q-6 -3 -28 -16q-50 -30 -164 -30q-157 0 -255 108q-94 105 -94 263q0 153 125 253
q117 93 274 93q58 0 155 -30q10 -3 40 -24t35 -21q14 0 42 51q13 24 26 24q16 0 16 -15q-6 -11 -8 -15q-22 -83 -22 -210v-650zM629 514q0 56 -16 86q-36 68 -142 68q-138 0 -223 -101q-80 -96 -80 -236q0 -129 79 -217q82 -92 209 -92q108 0 155 67q18 32 18 99v326z" />
    <glyph glyph-name="r" unicode="r" horiz-adv-x="524" 
d="M146 445q0 84 -13 101q-14 12 -46 12h-19q-20 0 -20 9q0 22 37 29q91 36 126 82q15 20 29 20q11 0 11 -14v-88q0 -33 10 -33q93 124 180 124t87 -74q0 -59 -61 -59q-29 0 -65 38q-18 19 -34 19q-38 0 -80 -55q-37 -49 -37 -155v-282q0 -43 10 -60q14 -23 60 -28
q26 -3 34 -5q11 -5 11 -15q0 -15 -17 -15q-26 0 -85 2l-61 2q-26 0 -84 -2l-63 -2q-23 0 -23 12q0 16 14 20l29 3q71 7 71 83v21q-1 15 -1 22v288z" />
    <glyph glyph-name="s" unicode="s" horiz-adv-x="615" 
d="M58 188q2 35 19 35q20 0 32 -55q16 -75 38 -104q42 -56 134 -56q73 0 127 38q61 43 61 113q0 61 -45 99q-36 30 -105 52q-113 36 -152 60q-82 51 -82 133q0 135 168 182q46 13 96 13q97 0 158 -28q19 -9 18 -38q-1 -35 -1 -32q2 -12 2 -34q0 -40 -19 -40
q-62 144 -188 144q-52 0 -94 -29q-47 -33 -47 -83q0 -76 99 -117q41 -17 186 -73q100 -56 100 -161q0 -104 -96 -169q-84 -57 -194 -57q-111 0 -197 48q-27 10 -24 56z" />
    <glyph glyph-name="t" unicode="t" horiz-adv-x="432" 
d="M213 223q0 -82 10 -117q19 -67 78 -67q34 0 60 17q4 3 55 39q3 -1 5 -4t5 -6q0 -20 -29 -46q-65 -58 -146 -58q-75 0 -113 50q-31 41 -31 142v442q0 29 -20 29h-19h-11q-7 -1 -9 -1q-29 0 -29 11q0 10 20 27q94 57 147 155q7 12 12 12q15 0 15 -19v-109q0 -27 27 -31h149
q14 0 14 -19q0 -28 -20 -27q-28 1 -27 1h-87q-7 0 -15 1h-10q-31 0 -31 -34v-388z" />
    <glyph glyph-name="u" unicode="u" horiz-adv-x="863" 
d="M716 186v-24q-1 -15 -1 -23q0 -55 46 -55q9 0 15 1h20q20 0 20 -13q0 -10 -34 -20q-52 -15 -80 -26q-44 -17 -73 -39q-3 -2 -7 -4q-9 -5 -11 -5q-5 0 -5 11v35q0 4 1 13v12q0 40 -14 40q-129 -108 -237 -108q-118 0 -182 89q-32 45 -41 105q-5 34 -5 113v261v12q1 9 1 12
q1 71 -71 71q-41 0 -41 24q0 10 10 10h184q25 0 24 -32t-1 -23v-335q0 -128 27 -172q43 -70 155 -70q103 0 164 70q30 28 30 111v318q0 10 1 21q0 41 -11 56q-16 22 -60.5 22t-44.5 24q0 10 13 10h190q18 0 18 -27v-465z" />
    <glyph glyph-name="v" unicode="v" horiz-adv-x="770" 
d="M591 538q1 9 10 33t9 35q0 38 -64 38q-40 0 -40 18q0 16 22 16h245q3 -2 3 -10q0 -12 -15 -18q-18 -4 -24 -6q-49 -6 -82 -55q-1 -2 -44 -94l-222 -478q-12 -36 -23 -36q-15 0 -15 17l-9 19l-224 541q-17 40 -23 51q-21 35 -73 35h-15q-15 3 -15 18q0 16 21 16h281
q27 0 27 -18q0 -16 -40 -16q-56 0 -56 -42q0 -14 9 -39l15 -37l157 -387z" />
    <glyph glyph-name="w" unicode="w" horiz-adv-x="1204" 
d="M408 8q-5 -27 -19 -27q-17 0 -21 27l-244 540q-12 28 -32 66q-23 30 -61.5 30t-38.5 16q0 18 25 18h710q10 -3 10 -18q0 -16 -35 -16q-52 0 -52 -34q0 -33 22 -67l183 -397l155 360q7 16 17.5 42t10.5 46q0 50 -55 50q-43 0 -43 16q0 18 24 18h224q22 0 22 -18
q0 -10 -56 -17q-26 -4 -51 -31q-12 -14 -52 -106l-213 -498q-3 -11 -6 -15q-7 -12 -14 -12t-13 11q-2 3 -6 16l-197 431zM548 408q27 60 27 70t-12 35l-17 35q-14 30 -33 67q-22 29 -97 29h-115q-76 0 -76 -38q0 -25 34 -100l167 -369z" />
    <glyph glyph-name="x" unicode="x" horiz-adv-x="801" 
d="M273 172q-15 -18 -41 -53q-25 -38 -25 -57q0 -31 66 -31q39 0 39 -23q0 -12 -28 -12q-20 0 -71 2l-56 2q-24 0 -78 -2l-60 -2q-19 0 -19 12q0 23 39 23q46 0 94 41q26 22 74 81l107 131q28 34 28 47q0 10 -13 27l-153 200l-51 63q-26 23 -77 23q-37 0 -37 16q0 18 11 18
h345q12 -2 12 -16q0 -18 -28 -18h-21q-51 0 -51 -29q0 -14 14 -37q8 -10 26 -35l97 -131l87 107q51 63 51 91q0 34 -59 34q-39 0 -39 18q0 16 22 16h281q26 0 26 -18q0 -16 -44 -16q-65 0 -105 -32q-14 -11 -75 -84l-77 -92q-35 -42 -35 -55q0 -8 15 -30q5 -8 12 -18
l159 -213q43 -58 77 -80q13 -9 38.5 -9t35.5 -4t10 -16q0 -15 -28 -15q-30 0 -101 2l-76 2q-23 0 -70 -2t-70 -2q-19 0 -19 15q0 21 35 20q30 -1 22 -1q54 0 54 28q0 18 -40 70l-132 170z" />
    <glyph glyph-name="y" unicode="y" horiz-adv-x="770" 
d="M591 526q1 9 10 34q9 22 9 33q0 51 -84 51q-36 0 -36 10q0 24 23 24h246q23 0 23 -24q0 -3 -33 -10q-41 0 -68 -33q-29 -36 -85 -166l-312 -729q-9 -43 -18 -52q-13 -13 -55 -13q-40 0 -56 6q-29 11 -29 45q0 58 48 58t69 5q16 5 26 24q5 11 14 33l53 122q15 35 15 45
q0 14 -7 32l-15 35l-203 480q-24 56 -34 71q-25 37 -62.5 37t-37.5 10q0 24 27 24h299q20 0 20 -24q0 -10 -37 -10q-76 0 -76 -44q0 -15 5 -32q3 -12 12 -32l174 -412z" />
    <glyph glyph-name="z" unicode="z" horiz-adv-x="709" 
d="M234 87q-23 -31 -23 -39q0 -11 38 -11h168q99 0 137 21q45 25 69 99q2 8 7 19.5t14 11.5q18 0 17 -35q-1 -19 -1 -25l-6 -76q1 -13 1 -21q0 -31 -24 -31h-524q-6 0 -15 -1h-11q-29 0 -29 14q0 11 20 37l414 544q17 34 17 35q0 10 -27 10h-193q-58 0 -87 -14
q-56 -27 -76 -62q-15 -25 -25 -25q-14 0 -14 10q0 16 10 36l42 118q8 46 26 46q17 0 17 -28q0 -42 58 -42h418q8 -2 8 -10q0 -18 -27 -45z" />
    <glyph glyph-name="braceleft" unicode="{" horiz-adv-x="401" 
d="M244 41q0 -68 22.5 -104t84.5 -57q-52 0 -76 4q-92 16 -113 99q-7 28 -7 85v276q0 58 -29 92.5t-78 47.5q66 16 88 52q19 31 19 103v230q0 119 38 164q42 49 158 49q-107 -38 -107 -164v-240q0 -88 -19 -127q-25 -52 -97 -67q70 -18 96 -66q20 -38 20 -117v-260z" />
    <glyph glyph-name="bar" unicode="|" horiz-adv-x="863" 
d="M397 1082h81v-1082h-81v1082z" />
    <glyph glyph-name="braceright" unicode="}" horiz-adv-x="401" 
d="M155 918q0 127 -105 164q116 0 157 -49q37 -44 37 -164v-230q0 -72 19 -103q22 -36 88 -52q-47 -12 -77 -47t-30 -93v-276q0 -55 -7 -84q-15 -62 -70 -87q-37 -17 -117 -17q61 21 84 59q21 34 21 102v260q0 80 21 117q26 47 97 66q-72 15 -98 67q-20 40 -20 127v240z" />
    <glyph glyph-name="asciitilde" unicode="~" horiz-adv-x="863" 
d="M805 536q-100 -139 -195 -139q-39 0 -86 14q-13 4 -50 17l-66 27q-23 9 -63.5 22t-63.5 13q-82 0 -146 -109l-63 40q46 73 85 104q53 42 126 42q55 0 167.5 -45.5t159.5 -45.5q69 0 131 99z" />
    <glyph glyph-name="sterling" unicode="&#xa3;" horiz-adv-x="743" 
d="M258 528h206v-97h-185q12 -27 12 -57q0 -126 -116 -249q53 14 94 14q56 0 122 -16q112 -27 152 -27q48 0 125 36l38 -107q-98 -41 -158 -41q-38 0 -56 5l-85 23l-86 25q-35 5 -61 5q-104 0 -197 -60l-45 113q150 86 150 255q0 35 -11 81h-128v97h100q-33 108 -33 172
q0 126 86 201q82 72 210 72q251 0 289 -247l-116 -18q-26 169 -175 169q-69 0 -119 -45.5t-50 -114.5t37 -189z" />
    <glyph glyph-name="yen" unicode="&#xa5;" horiz-adv-x="743" 
d="M311 0v212h-271v91h271v93h-271v97h223l-265 464h131l189 -337q25 -45 49 -100q19 42 54 106l179 331h140l-265 -464h223v-97h-269v-93h269v-91h-269v-212h-118z" />
    <glyph glyph-name="brokenbar" unicode="&#xa6;" horiz-adv-x="347" 
d="M225 973v-515h-102v515h102zM225 235v-516h-102v516h102z" />
    <glyph glyph-name="copyright" unicode="&#xa9;" horiz-adv-x="985" 
d="M495 973q208 0 350 -142.5t142 -350.5q0 -205 -143.5 -348.5t-348.5 -143.5q-206 0 -349.5 143t-143.5 349q0 209 142 351t351 142zM495 892q-172 0 -291.5 -120t-119.5 -292q0 -173 119 -291.5t292 -118.5t291.5 118.5t118.5 291.5q0 170 -120 291t-290 121zM653 401
l80 -24q-48 -179 -238 -179q-123 0 -192 80q-66 76 -66 201q0 127 69.5 202.5t194.5 75.5q173 0 222 -154l-77 -19q-43 100 -148 100q-85 0 -131 -63q-41 -56 -41 -144q0 -202 165 -202q128 0 162 126z" />
    <glyph glyph-name="registered" unicode="&#xae;" horiz-adv-x="985" 
d="M495 973q208 0 350 -142.5t142 -350.5q0 -205 -143.5 -348.5t-348.5 -143.5q-206 0 -349.5 143t-143.5 349q0 209 142 351t351 142zM495 892q-172 0 -291.5 -120t-119.5 -292q0 -173 119 -291.5t292 -118.5t291.5 118.5t118.5 291.5q0 170 -120 291t-290 121zM279 208
v530h182q226 0 226 -143q0 -62 -45 -105q-42 -39 -106 -45q49 -15 123 -133l65 -104h-105l-47 84q-42 76 -60 96q-40 45 -98 45h-50v-225h-85zM364 506h104q129 0 129 81q0 79 -136 79h-97v-160z" />
    <glyph glyph-name="plusminus" unicode="&#xb1;" horiz-adv-x="734" 
d="M311 170v263h-260v109h260v260h111v-260h261v-109h-261v-263h-111zM683 0h-632v110h632v-110z" />
    <glyph glyph-name="paragraph" unicode="&#xb6;" horiz-adv-x="718" 
d="M264 -266v682q-115 0 -189 74.5t-74 190.5q0 136 87 209q81 67 221 67h414v-113h-94v-1110h-111v1110h-146v-1110h-108z" />
    <glyph glyph-name="multiply" unicode="&#xd7;" horiz-adv-x="781" 
d="M105 267l206 206l-205 204l79 80l205 -205l205 204l78 -79l-204 -204l205 -205l-79 -79l-205 205l-206 -206z" />
    <glyph glyph-name="Oslash" unicode="&#xd8;" horiz-adv-x="1040" 
d="M816 869l110 123l64 -55l-115 -129q102 -145 102 -330q0 -215 -118 -351q-125 -143 -336 -143q-156 0 -295 100l-109 -123l-65 55l115 129q-107 159 -107 331q0 216 120 353q127 144 340 144q162 0 294 -104zM738 781q-103 84 -216 84q-164 0 -251 -115
q-78 -103 -78 -272q0 -133 58 -242zM791 714l-485 -543q96 -79 213 -79q158 0 247 115q81 105 81 268q0 133 -56 239z" />
    <glyph glyph-name="divide" unicode="&#xf7;" horiz-adv-x="734" 
d="M300 602v134h133v-134h-133zM683 417h-632v110h632v-110zM300 208v134h133v-134h-133z" />
    <glyph glyph-name="oslash" unicode="&#xf8;" horiz-adv-x="817" 
d="M603 652l65 84l62 -46l-69 -90q76 -98 76 -254q0 -163 -80 -259q-87 -103 -246 -103q-105 0 -183 53l-69 -89l-61 47l70 92q-81 90 -81 250q0 164 78 263q85 109 244 109q98 0 194 -57zM537 566q-60 46 -124 46q-103 0 -158 -84q-47 -72 -47 -181q0 -99 34 -164zM586 503
l-293 -381q52 -41 115 -41q107 0 162 83q47 70 47 183q0 95 -31 156z" />
    <glyph glyph-name="u0E00" unicode="&#xe00;" horiz-adv-x="211" 
 />
    <glyph glyph-name="afii59681" unicode="&#xe01;" horiz-adv-x="677" 
d="M57 20v741h-57v22h173q40 0 134 31.5t141 31.5q116 0 116 -146v-680h58v-20h-232v20h58v705q0 95 -75 95q-31 0 -79 -14q-113 -33 -133 -33v-753h63v-20h-224v20h57z" />
    <glyph glyph-name="afii59682" unicode="&#xe02;" horiz-adv-x="600" 
d="M123 808h-78v20h194v-206q0 -45 -51.5 -97.5t-51.5 -79.5v-263q0 -162 116 -162q118 0 118 162v626h-57v20h231v-20h-58v-601q0 -207 -234 -207q-232 0 -232 207v279q0 32 51.5 81.5t51.5 79.5v161z" />
    <glyph glyph-name="afii59683" unicode="&#xe03;" horiz-adv-x="622" 
d="M57 808v20h109l32 -71l60 112v-247q0 -47 -68 -115q-32 -32 -32 -62v-263q0 -162 116 -162q117 0 117 162v626h-59v20h233v-20h-57v-601q0 -207 -234 -207q-233 0 -233 207v279q0 31 51 81t51 80v161h-86z" />
    <glyph glyph-name="afii59684" unicode="&#xe04;" horiz-adv-x="677" 
d="M168 20h66v-20h-234v20h51v602q0 206 259 206q254 0 254 -206v-602h58v-20h-232v20h58v680q0 108 -138 108q-142 0 -142 -108v-214q6 33 29 67q32 47 75 47l114 -109l-16 -15l-47 48q-68 0 -111.5 -50t-43.5 -118v-336z" />
    <glyph glyph-name="afii59685" unicode="&#xe05;" horiz-adv-x="663" 
d="M168 700v-214q6 33 29 67q32 47 75 47l114 -109l-16 -15l-47 48q-68 0 -111.5 -50t-43.5 -118v-336h66v-20h-234v20h51v602q0 82 45 147q51 74 129 74q43 0 85 -28q39 -26 59 -75l39 88h106v-808h59v-20h-223v20h58v773l-48 -101q0 65 -51 101q-41 29 -72 29
q-69 0 -69 -122z" />
    <glyph glyph-name="afii59686" unicode="&#xe06;" horiz-adv-x="684" 
d="M176 310q0 -71 45 -172q53 -119 116 -119q119 0 119 125v664h-62v20h236v-20h-57v-601q0 -88 -57.5 -151t-145.5 -63q-25 0 -52 7q-57 15 -98 92q-33 61 -44 132v-224h-176v20h58v788h-58v20h83l31 -71l62 112v-559z" />
    <glyph glyph-name="afii59687" unicode="&#xe07;" horiz-adv-x="524" 
d="M0 808v20h76v-20h-25l142 -520l125 499q2 3 -11 16q-2 5 -14 5h-54v20h143q27 0 39 -11t12 -29q0 -7 -2 -15l-197 -773l-209 808h-25z" />
    <glyph glyph-name="afii59688" unicode="&#xe08;" horiz-adv-x="630" 
d="M408 466v234q0 43 -56 76q-46 27 -97 32q-198 0 -255 -247v187l33 15q17 7 35 19q53 27 81 35q41 11 106 11q89 0 171 -57q90 -63 90 -149v-602h49v-20h-222v20h65v355q0 168 -215 168l-50 -49l-15 15l111 110q89 0 135 -60q34 -44 34 -93z" />
    <glyph glyph-name="afii59689" unicode="&#xe09;" horiz-adv-x="684" 
d="M-2 532l2 199l25 13q13 6 24 16q45 32 77 48q64 31 147 31q112 0 196 -51q100 -61 100 -166v-602h53v-20h-169v119q-42 -96 -143 -119q-22 -5 -41 -5q-85 0 -148 63.5t-63 148.5v238h-58v21h174v-335q0 -113 110 -113q12 0 18 1q65 0 110 63q41 57 41 125v493
q0 63 -57 96q-47 26 -115 26q-46 0 -90 -13q-136 -41 -193 -277z" />
    <glyph glyph-name="afii59690" unicode="&#xe0a;" horiz-adv-x="632" 
d="M0 808v20h176v-808h116q68 0 94 182q5 36 5 115q0 53 -5 99q-11 101 -126 210q-53 50 -53 99q0 66 42.5 106.5t109.5 40.5q59 0 103 -23q41 -23 41 -84q0 -81 -63 -92q-6 -1 -12 -1q-31 0 -61 25t-30 55q0 21 38 77q-1 5 -6 7q-20 9 -41 9q-42 0 -71 -33.5t-29 -76.5
q0 -52 77 -115q121 -99 143 -124q78 -90 78 -206q0 -134 -86 -219q-72 -71 -148 -71h-290v20h58v788h-60z" />
    <glyph glyph-name="afii59691" unicode="&#xe0b;" horiz-adv-x="642" 
d="M292 20q74 0 94 182q3 14 4 55l1 89q0 48 -5 70q-10 100 -126 210q-53 50 -53 99q0 66 43 107.5t110 41.5q20 0 42 -5q79 -18 95 -66q6 -18 6 -38q0 -81 -63 -92q-6 -1 -12 -1q-31 0 -61 25t-30 55q0 21 38 77q-1 5 -6 7q-20 9 -41 9q-42 0 -71 -33.5t-29 -76.5
q0 -52 77 -115q121 -99 143 -124q78 -90 78 -206q0 -290 -233 -290h-293v20h60v788h-60v20h83l31 -71l62 112v-849h116z" />
    <glyph glyph-name="afii59692" unicode="&#xe0c;" horiz-adv-x="1067" 
d="M557 310q0 -67 50 -172q56 -116 113 -127q5 -1 12 -1q44 0 74 38t30 83v677h-60v20h234v-20h-57v-601q0 -88 -50 -151q-55 -67 -141 -67q-92 0 -150 94q-40 65 -55 141v-224h-167v20h58v705q0 91 -68 91q-33 0 -111 -27.5t-108 -27.5v-741h63v-20h-167v761h-57v22h173
q40 0 132 31.5t138 31.5q114 0 114 -146v-390z" />
    <glyph glyph-name="afii59693" unicode="&#xe0d;" horiz-adv-x="1067" 
d="M508 -109q25 -80 160 -80q72 0 122 61q46 57 46 131v153q-19 -33 -54 -62q-29 -24 -72 -49q-29 -17 -69 -17q-75 0 -134 63.5t-59 139.5v494q0 91 -75 91q-38 0 -113.5 -27.5t-98.5 -27.5v-741h63v-20h-167v761h-57v22h173q40 0 132 31.5t138 31.5q114 0 114 -146v-519
q0 -131 97 -131q33 0 63 18q119 71 119 184v556h-60v20h234v-20h-57v-757q0 -109 -92 -186q-87 -72 -198 -72q-73 0 -133 40q-69 46 -62 116q6 61 53 61q5 1 9 1q62 0 62 -62q0 -63 -61 -63q-13 0 -23 5z" />
    <glyph glyph-name="afii59694" unicode="&#xe0e;" horiz-adv-x="677" 
d="M564 -207h-390v22h274v910q0 91 -68 91q-33 0 -111 -27.5t-108 -27.5v-761h-161v20h57v741h-57v22h173q40 0 134 31.5t141 31.5q116 0 116 -146v-907z" />
    <glyph glyph-name="afii59695" unicode="&#xe0f;" horiz-adv-x="677" 
d="M564 -207h-138l-86 84l-85 -84h-132v22h126l91 90l91 -90h17v910q0 91 -68 91q-33 0 -111 -27.5t-108 -27.5v-761h-161v20h57v741h-57v22h173q40 0 134 31.5t141 31.5q116 0 116 -146v-907z" />
    <glyph glyph-name="afii59696" unicode="&#xe10;" horiz-adv-x="625" 
d="M361 -73h-52v22h225v-22h-53v-134h-139l-87 84l-86 -84h-79v22h74l91 90l93 -90h13v112zM481 476v-456h51v-20h-233v20h62v96q0 105 -42 198q-57 126 -161 126l-50 -49l-15 16l126 125h5q67 0 107 -92q30 -69 30 -130v93v22q1 16 1 22q1 125 -40 177q-34 42 -103 42
q-38 0 -85 -11l-132 -31q-5 25 -5 53q0 66 43.5 124.5t98.5 77.5q41 14 128 14q62 0 151 -34q36 -14 91 -36v-156l-18 10q-6 29 -9 42q-10 41 -24 55q-43 43 -77 62q-57 32 -131 32q-147 0 -147 -111q28 9 85 23q18 2 40 2q253 0 253 -306z" />
    <glyph glyph-name="afii59697" unicode="&#xe11;" horiz-adv-x="684" 
d="M176 607q11 71 44 131q41 75 97 90q27 7 54 7q86 0 142 -63t56 -150v-602h58v-20h-233v20h59v680q0 111 -118 111q-62 0 -115 -119q-46 -103 -46 -174v-498h67v-20h-241v20h58v788h-58v20h83l31 -71l62 112v-262z" />
    <glyph glyph-name="afii59698" unicode="&#xe12;" horiz-adv-x="1029" 
d="M343 20h60v788l-93 -93q0 54 -35 83q-26 21 -47 21q-94 0 -94 -412q0 -243 24 -326q18 -62 50 -62q41 0 77 71q3 6 12 29l16 -16q-10 -25 -16 -35q-43 -74 -97 -74q-98 0 -156 167q-44 126 -44 246q0 127 48 261q63 174 168 174q35 0 66 -27q36 -32 36 -71l85 84h181v-20
h-65v-498q0 -47 44 -150q65 -152 139 -152q38 0 69 43q28 40 28 80v677h-59v20h234v-20h-59v-601q0 -85 -50 -150q-55 -71 -138 -71q-90 0 -150 95q-39 60 -58 143v-224h-176v20z" />
    <glyph glyph-name="afii59699" unicode="&#xe13;" horiz-adv-x="1073" 
d="M995 20v-20h-159v156q-54 -93 -128 -133q-39 -22 -79 -22q-75 0 -130 66q-51 63 -51 140v518q0 91 -75 91q-38 0 -113.5 -27.5t-98.5 -27.5v-741h63v-20h-167v761h-57v22h173q40 0 132 31.5t138 31.5q114 0 114 -146v-542q0 -134 91 -134q35 0 72 27q116 85 116 201v556
h-60v20h234v-20h-57v-788h42z" />
    <glyph glyph-name="afii59700" unicode="&#xe14;" horiz-adv-x="633" 
d="M403 20v788h-131q-110 0 -129 -195q-9 -86 -9 -206q0 -164 11 -250q17 -132 60 -132q19 0 42 23q14 14 32 48q3 5 14 29l20 -22q-12 -20 -23 -37q-50 -75 -89 -75q-69 0 -132 119q-69 130 -69 297q0 155 58 272q74 149 214 149h306v-20h-59v-788h59v-20h-235v20h60z" />
    <glyph glyph-name="afii59701" unicode="&#xe15;" horiz-adv-x="633" 
d="M310 715q0 54 -35 83q-26 21 -47 21q-94 0 -94 -412q0 -252 20 -333q13 -56 45 -56q38 0 83 76q3 6 15 29l16 -20q-10 -25 -16 -35q-43 -74 -97 -74q-98 0 -156 167q-44 126 -44 246q0 127 48 261q63 174 168 174q35 0 66 -27q36 -32 36 -71l85 84h175v-20h-59v-788h59
v-20h-235v20h60v788z" />
    <glyph glyph-name="afii59702" unicode="&#xe16;" horiz-adv-x="677" 
d="M564 20h58v-20h-232v20h58v705q0 91 -68 91q-33 0 -111 -27.5t-108 -27.5v-741h63v-20h-167v761h-57v22h173q40 0 134 31.5t141 31.5q116 0 116 -146v-680z" />
    <glyph glyph-name="afii59703" unicode="&#xe17;" horiz-adv-x="677" 
d="M168 607q11 70 44 130q42 76 98 91q26 7 55 7q86 0 142.5 -63t56.5 -150v-602h58v-20h-232v20h58v680q0 111 -118 111q-63 0 -116 -119q-46 -103 -46 -174v-498h66v-20h-234v20h51v788h-51v20h168v-221z" />
    <glyph glyph-name="afii59704" unicode="&#xe18;" horiz-adv-x="632" 
d="M280 850q39 0 90 -14q20 -5 152 -58v-154l-21 9q-7 35 -12 55q-8 30 -19 43q-48 44 -78 61q-59 33 -131 33q-36 0 -91 -32q-59 -35 -59 -68q0 -31 106 -65q154 -50 198 -73q107 -57 107 -142v-289q0 -82 -91 -132q-76 -43 -164 -43q-46 0 -101.5 31.5t-84.5 70.5l-71 -83
v518l116 -45v-317q0 -59 41.5 -106.5t99.5 -47.5q57 0 99 48.5t42 105.5v234q0 79 -103 124l-191 60q-104 33 -104 83v101q0 50 116 75q77 17 154 17z" />
    <glyph glyph-name="afii59705" unicode="&#xe19;" horiz-adv-x="684" 
d="M453 224q-10 -71 -44 -133q-41 -76 -99 -91q-27 -7 -52 -7q-87 0 -143.5 63t-56.5 151v601h-58v20h174v-697q0 -108 119 -108q62 0 115 117q45 99 45 170v498h-63v20h232v-20h-53v-788h53v-20h-169v224z" />
    <glyph glyph-name="afii59706" unicode="&#xe1a;" horiz-adv-x="677" 
d="M390 808v20h232v-20h-58v-601q0 -96 -81 -155q-73 -52 -173 -52q-99 0 -172 53q-80 58 -80 154v601h-58v20h176v-697q0 -111 134 -111q138 0 138 111v677h-58z" />
    <glyph glyph-name="afii59707" unicode="&#xe1b;" horiz-adv-x="677" 
d="M622 1035v-20h-58v-808q0 -96 -81 -155q-73 -52 -173 -52q-99 0 -172 53q-80 58 -80 154v601h-58v20h176v-697q0 -111 134 -111q138 0 138 111v904h174z" />
    <glyph glyph-name="afii59708" unicode="&#xe1c;" horiz-adv-x="703" 
d="M161 0l-150 768q0 20 13.5 40t37.5 20h129v-20h-63l86 -409l85 429l83 -429l84 409h-59v20h234v-20h-51l-155 -808l-136 718z" />
    <glyph glyph-name="afii59709" unicode="&#xe1d;" horiz-adv-x="703" 
d="M161 0l-150 768q0 20 13.5 40t37.5 20h129v-20h-63l86 -409l85 429l83 -429l124 616h-63v20h234v-20h-47l-195 -1015l-136 718z" />
    <glyph glyph-name="afii59710" unicode="&#xe1e;" horiz-adv-x="750" 
d="M206 0l-157 808h-49v20h168l90 -429l84 429l84 -429l85 409h-61v20h234v-20h-49l-157 -808l-136 718z" />
    <glyph glyph-name="afii59711" unicode="&#xe1f;" horiz-adv-x="740" 
d="M206 0l-157 808h-49v20h168l90 -429l84 429l84 -429l123 616h-60v20h234v-20h-50l-195 -1015l-136 718z" />
    <glyph glyph-name="afii59712" unicode="&#xe20;" horiz-adv-x="677" 
d="M564 20h58v-20h-232v20h58v705q0 91 -64 91q-32 0 -106.5 -27.5t-104.5 -27.5v-761h-173v20h57v741h-57v22h173q40 0 134 31.5t141 31.5q116 0 116 -146v-680z" />
    <glyph glyph-name="afii59713" unicode="&#xe21;" horiz-adv-x="677" 
d="M168 0h-168v20h51v788h-51v20h168v-518q0 -71 45 -172q53 -119 117 -119q118 0 118 112v677h-58v20h232v-20h-58v-601q0 -88 -57 -151t-144 -63q-26 0 -53 7q-57 15 -98 92q-33 61 -44 132v-224z" />
    <glyph glyph-name="afii59714" unicode="&#xe22;" horiz-adv-x="677" 
d="M119 234q0 -110 70 -169q54 -45 121 -45q62 0 91 16q47 26 47 95v697h166v-20h-50v-642q0 -81 -85 -128q-72 -40 -166 -40q-114 0 -201 61q-93 66 -112 175q-6 35 -6 72q0 98 49 176q57 91 150 91q-193 0 -193 134q0 58 44.5 98t102.5 40q73 0 114 -41q24 -24 32 -69
l-19 -8q-6 65 -55 74q-14 4 -24 4q-70 0 -70 -104q0 -102 182 -102q-126 -50 -163 -141q-25 -62 -25 -224z" />
    <glyph glyph-name="afii59715" unicode="&#xe23;" horiz-adv-x="632" 
d="M269 850q63 0 151 -35q36 -15 91 -37v-154l-20 9q-7 39 -12 55q-9 30 -20 43q-49 46 -76 62q-59 35 -131 35q-151 0 -151 -103q0 -32 106 -66q159 -51 198 -72q106 -56 106 -142v-289q0 -74 -104 -126q-92 -46 -192 -46q-43 0 -100 24q-69 29 -104 75v126l22 -3v-50
q0 -57 64 -105q59 -45 118 -45t119 45q65 49 65 105v234q0 79 -103 124l-192 60q-104 33 -104 83v101q0 50 115 75q77 17 154 17z" />
    <glyph glyph-name="afii59716" unicode="&#xe24;" horiz-adv-x="677" 
d="M564 -185h58v-22h-232v22h58v910q0 91 -64 91q-32 0 -106.5 -27.5t-104.5 -27.5v-741h61v-20h-177v761h-57v22h173q20 0 163 39q70 19 109 19q119 0 119 -141v-885z" />
    <glyph glyph-name="afii59717" unicode="&#xe25;" horiz-adv-x="677" 
d="M342 151q18 -15 18 -42q0 -34 -25 -64q-56 -66 -135 -66q-25 0 -53 6q-76 16 -116 95q-33 64 -33 151q0 208 236 268q189 48 214 123v78q0 118 -179 118q-125 0 -197 -77t-72 -202v196q23 14 70 41q64 35 80 41q48 19 122 19q103 0 191 -55q101 -62 101 -159v-602h52v-20
h-168v581q-43 -51 -117 -76q-45 -15 -107 -35q-96 -47 -96 -240v-46q0 -182 91 -182q7 0 25 4q30 10 56 31q38 31 38 66q0 12 -8 30z" />
    <glyph glyph-name="afii59718" unicode="&#xe26;" horiz-adv-x="677" 
d="M564 -185h58v-22h-232v22h58v910q0 91 -64 91q-32 0 -106.5 -27.5t-104.5 -27.5v-761h-173v20h57v741h-57v22h173q40 0 134 31.5t141 31.5q116 0 116 -146v-885z" />
    <glyph glyph-name="afii59719" unicode="&#xe27;" horiz-adv-x="581" 
d="M367 410q0 126 -5 177q-22 222 -153 222q-140 0 -184 -193q-10 -43 -25 -150v259l28 23q50 41 88 62q42 24 98 24q148 0 236 -138q76 -120 76 -281q0 -138 -66 -270q-80 -160 -204 -160q-30 0 -62.5 12t-59.5 30q-8 5 -21 5q-45 0 -55 -32v236q0 -63 33 -123
q41 -74 111 -93q15 -4 34 -4q89 0 117 146q14 73 14 248z" />
    <glyph glyph-name="afii59720" unicode="&#xe28;" horiz-adv-x="677" 
d="M168 20h66v-20h-234v20h51v602q0 206 259 206q254 0 254 -206v-602h58v-20h-232v20h58v680q0 108 -138 108q-142 0 -142 -108v-214q6 33 29 67q32 47 75 47l114 -109l-16 -15l-47 48q-68 0 -111.5 -50t-43.5 -118v-336zM478 793q0 43 27 79q29 40 70 40q12 0 25 -6
q46 -21 46 -67q0 -17 -7 -36q-3 -7 -7 -16q-12 34 -77 34q-49 0 -56 -45z" />
    <glyph glyph-name="afii59721" unicode="&#xe29;" horiz-adv-x="677" 
d="M356 569q-22 -19 -22 -46q0 -55 56 -55q27 0 58 21v319h-58v20h232v-20h-58v-282q12 15 31 15q25 0 32 -14v-19q-2 6 -9 9.5t-20 3.5q-23 0 -34 -15v-299q0 -95 -82 -154q-73 -53 -172 -53t-172 53q-80 58 -80 154v601h-58v20h176v-697q0 -111 134 -111q138 0 138 111
v337q-42 -28 -86 -28q-41 0 -71 27t-30 67q0 55 57 98l73 -73l-9 -11z" />
    <glyph glyph-name="afii59722" unicode="&#xe2a;" horiz-adv-x="677" 
d="M468 776q0 43 26 79q29 40 70 40q12 0 26 -6q45 -19 45 -67q0 -23 -8 -44q-1 -4 -5 -9q-3 15 -29.5 26t-44.5 11q-48 0 -57 -46zM342 151q18 -15 18 -42q0 -34 -25 -64q-56 -66 -135 -66q-25 0 -53 6q-76 16 -116 95q-33 64 -33 151q0 208 236 268q189 48 214 123v78
q0 118 -179 118q-125 0 -197 -77t-72 -202v196q23 14 70 41q64 35 80 41q48 19 122 19q103 0 191 -55q101 -62 101 -159v-602h52v-20h-168v581q-43 -51 -117 -76q-45 -15 -107 -35q-96 -47 -96 -240v-46q0 -182 91 -182q7 0 25 4q30 10 56 31q38 31 38 66q0 12 -8 30z" />
    <glyph glyph-name="afii59723" unicode="&#xe2b;" horiz-adv-x="677" 
d="M478 654q-39 0 -60 31q-13 19 -13 44q0 38 35 62q13 9 31 9t37 -13q0 30 -34 48q-29 16 -61 16q-94 0 -112 -103q-1 -6 -1 -13q0 -47 48 -85q90 0 153 -64.5t63 -154.5v-411h63v-20h-233v20h54v370q0 106 -19 156q-31 81 -119 81q-65 0 -106 -63q-36 -55 -36 -123v-421
h66v-20h-234v20h51v788h-51v20h168v-301q12 53 56 88t99 35q-42 36 -42 89q0 13 2 21q26 106 130 106q58 0 100 -33q45 -36 45 -92q0 -35 -19 -59q-22 -28 -61 -28z" />
    <glyph glyph-name="afii59724" unicode="&#xe2c;" horiz-adv-x="750" 
d="M206 0l-157 808h-49v20h168l90 -429l84 429l84 -429l73 367q5 24 -19.5 43t-48.5 19q28 0 56.5 18.5t34.5 44.5l27 124h-60v20h234v-20h-50l-24 -124q-8 -40 -68 -63q51 -20 43 -62l-146 -766l-136 718z" />
    <glyph glyph-name="afii59725" unicode="&#xe2d;" horiz-adv-x="673" 
d="M41 622q-1 7 -1 14q0 61 95 134q76 58 180 58q152 0 230 -140q62 -112 62 -277q0 -157 -66 -272q-80 -139 -226 -139q-142 0 -216 142q-58 113 -58 269v107h266v-21h-149v-225q0 -92 33 -162q42 -90 124 -90t126 90q35 71 35 162v297q0 239 -161 239q-157 0 -157 -186
h-117z" />
    <glyph glyph-name="afii59726" unicode="&#xe2e;" horiz-adv-x="677" 
d="M441 798q0 42 27 78q29 40 70 40q9 0 26 -7q45 -18 45 -65q0 -18 -7 -37q-2 -7 -8 -16q-6 35 -72 35q-49 0 -56 -44zM41 622q-1 7 -1 14q0 61 95 134q76 58 180 58q152 0 230 -140q62 -112 62 -277q0 -157 -66 -272q-80 -139 -226 -139q-142 0 -216 142q-58 113 -58 269
v107h266v-21h-149v-225q0 -92 33 -162q42 -90 124 -90t126 90q35 71 35 162v297q0 239 -161 239q-157 0 -157 -186h-117z" />
    <glyph glyph-name="afii59727" unicode="&#xe2f;" horiz-adv-x="647" 
d="M207 642q-6 1 -12 1q-35 0 -55.5 -29t-20.5 -65q0 -131 153 -131q63 0 104 79q35 65 35 135v129h162v-20h-57v-926h57v-22h-215v22h53v644q-55 -66 -139 -66t-147 51q-68 55 -68 137q0 83 68 144z" />
    <glyph glyph-name="afii59729" unicode="&#xe30;" horiz-adv-x="285" 
d="M88 305q48 0 72 -38q14 -22 14 -48q0 -47 -38 -72q-21 -14 -48 -14q-86 0 -86 86q0 22 8 39q23 47 78 47zM40 710q23 15 48 15q48 0 72 -38q14 -22 14 -48q0 -47 -38 -72q-21 -14 -48 -14q-86 0 -86 86q0 46 38 71z" />
    <glyph glyph-name="afii59728" unicode="&#xe31;" 
d="M-3 1143l79 -78q-27 -40 -107 -60q-57 -14 -121 -14h-159q-62 0 -92 10q-47 16 -65 61q-4 10 -4 26q0 69 64 101l93 -94q-56 0 -56 -39q0 -46 74 -46h129q56 0 105 32q60 39 60 101z" />
    <glyph glyph-name="afii59730" unicode="&#xe32;" horiz-adv-x="424" 
d="M367 20h-57v705q0 60 -71 89q-53 22 -123 22q-7 0 -82 -18q-13 -3 -34 -10v-186q0 70 29 128q37 74 99 74q8 0 28 -4q38 -12 38 -95v-705h-53v-20h226v20z" />
    <glyph glyph-name="afii59731" unicode="&#xe33;" horiz-adv-x="420" 
d="M-177 1173q55 0 90.5 -36t35.5 -91q0 -56 -35 -91.5t-91 -35.5t-91 35.5t-35 91.5t35 91.5t91 35.5zM-176 969q77 0 77 73q0 77 -77 77t-77 -77q0 -73 77 -73zM367 20h-57v705q0 60 -71 89q-53 22 -123 22q-7 0 -82 -18q-13 -3 -34 -10v-186q0 70 29 128q37 74 99 74
q8 0 28 -4q38 -12 38 -95v-705h-53v-20h226v20z" />
    <glyph glyph-name="afii59732" unicode="&#xe34;" 
d="M-119 1025q-31 -33 -105 -33q-44 0 -121 38t-113 38q-10 -1 -15 -1q-37 -4 -107 -34q-29 -12 -61 -29v31q35 16 61 27q96 40 150 40q27 0 131 -23q50 -11 88 -11q61 0 92 40v-83z" />
    <glyph glyph-name="afii59733" unicode="&#xe35;" 
d="M-119 1004l-30 -8q-37 -10 -53 -13q-11 -1 -16 -1q-40 0 -115 32.5t-114 32.5q-47 0 -128 -36q-25 -11 -58 -28v32q38 19 58 27q94 40 165 40q61 0 174 -37v104h117v-145z" />
    <glyph glyph-name="afii59734" unicode="&#xe36;" 
d="M-301 1111q8 22 16 31q27 32 78 32q78 0 88 -84q0 -93 -88 -115q-12 -3 -24 -3q-20 0 -126 46q-53 23 -98 23q-12 0 -21 -1q-63 -7 -121 -35q-20 -9 -47 -28l-6 31q24 18 44 27q75 36 182 40h24q102 0 174 -33q18 -8 32 -8q41 0 50 42q1 5 1 14q0 63 -57 63q-10 1 -13 1
q-39 0 -58 -30q-6 -9 -11 -31z" />
    <glyph glyph-name="afii59735" unicode="&#xe37;" 
d="M-125 994q-17 -6 -29 -9q-43 -12 -71 -12q-32 0 -102.5 31.5t-119.5 31.5q-19 0 -29 -1q-48 0 -112 -30q-20 -9 -56 -31v30q30 18 53 29q94 46 184 46q29 0 64 -6v67h82v-92q3 -2 5 -2q14 -5 28 -5q12 0 21 4v95h82v-146z" />
    <glyph glyph-name="afii59736" unicode="&#xe38;" 
d="M-117 -73v-182h55v-20h-212v20h57v162h-57v20h157z" />
    <glyph glyph-name="afii59737" unicode="&#xe39;" 
d="M-116 -109q0 -166 -167 -166q-93 0 -132 44q-36 41 -36 138h-43v20h146v-103q0 -79 65 -79q64 0 64 79v83h-22v20h146v-20h-21v-16z" />
    <glyph glyph-name="afii59738" unicode="&#xe3a;" 
d="M-156 -239q-68 0 -68 68t68 68t68 -68t-68 -68z" />
    <glyph glyph-name="afii59743" unicode="&#xe3f;" horiz-adv-x="869" 
d="M410 470v350h-16q-109 0 -117 -50q-3 -15 -3 -37v-199q0 -43 11 -53.5t55 -10.5h70zM484 808v-332q57 13 89 43q46 43 46 122q0 131 -135 167zM410 20v425h-68q-11 0 -20 1q-34 0 -42 -15q-6 -11 -6 -49v-213q0 -49 4 -70q8 -41 35 -56q22 -15 97 -23zM484 440v-417
q72 0 127 52q66 62 66 153q0 120 -103 179q-39 22 -90 33zM484 839q44 -4 133 -28q124 -53 124 -164q0 -73 -57 -123q-50 -44 -127 -58q98 -12 165 -73q73 -67 73 -162q0 -116 -101 -184q-46 -31 -101 -42q-40 -8 -109 -8v-182h-74v182l-254 3l-83 -3q-24 -1 -24 18
q0 13 22 13h13q74 0 82 40q3 15 3 73v563q0 10 1 20q0 71 -61 71q-11 0 -32 -5t-29 -5q-15 0 -15 13q0 20 60 30q84 14 263 14h54v190h74v-193z" />
    <glyph glyph-name="afii59744" unicode="&#xe40;" horiz-adv-x="280" 
d="M0 808v20h215v-20h-54v-788h54v-20h-158v808h-57z" />
    <glyph glyph-name="afii59745" unicode="&#xe41;" horiz-adv-x="539" 
d="M275 808v20h206v-20h-57v-788h57v-20h-172v808h-34zM0 808v20h206v-20h-33v-788h53v-20h-169v808h-57z" />
    <glyph glyph-name="afii59746" unicode="&#xe42;" horiz-adv-x="272" 
d="M41 1302q-14 57 -70 82q-18 8 -54 14q17 70 52 98q59 47 167 47q161 -108 239 -108q136 0 201 46q42 30 57 127l22 -6q-6 -42 -15 -66q-35 -93 -148 -114q-38 -7 -117 -7q-66 0 -134 39q-14 8 -105 64q-23 6 -48 6q-121 0 -141 -98q66 -7 98 -21q99 -43 99 -150v-1235h57
v-20h-160v1302z" />
    <glyph glyph-name="afii59747" unicode="&#xe43;" horiz-adv-x="272" 
d="M-177 1357q0 72 67 121q60 45 135 45q95 0 156 -57.5t61 -151.5q0 -54 -66 -135q-32 -39 -32 -81v-1065h58v-22l-161 -11v1086q0 42 86.5 116.5t86.5 122.5q0 77 -57 128q-54 48 -132 48q-58 0 -113 -34q-68 -42 -68 -105q0 -104 76 -104q24 0 52 15q56 31 56 101
q0 22 -5 35l70 -30q-15 -51 -27 -70q-23 -35 -76 -60q-30 -14 -61 -14q-106 0 -106 122z" />
    <glyph glyph-name="afii59748" unicode="&#xe44;" horiz-adv-x="261" 
d="M144 20h57v-20h-160v1255q0 103 99 149q31 15 99 27q-28 91 -144 91h-19q-8 0 -27 -4q-34 -22 -101.5 -62.5t-136.5 -40.5q-150 0 -213 49q-52 40 -52 105q0 21 3 33q0 3 3 6q15 -96 58 -127q65 -46 201 -46q61 0 140 47q28 17 98 61q139 0 193 -72q18 -24 27 -73
q-35 -5 -53 -13q-57 -25 -72 -83v-1282z" />
    <glyph glyph-name="afii59749" unicode="&#xe45;" horiz-adv-x="424" 
d="M367 -185h-57v910q0 60 -71 89q-53 22 -123 22q-7 0 -82 -18q-13 -3 -34 -10v-186q0 70 29 128q37 74 99 74q8 0 28 -4q38 -12 38 -95v-910h-53v-22h226v22z" />
    <glyph glyph-name="afii59750" unicode="&#xe46;" horiz-adv-x="652" 
d="M81 494q-37 51 -37 108q0 63 46 106.5t110 43.5q57 0 113 -42q48 -36 48 -75l42 90h175v-22h-59v-888h59v-22h-235v22h60v875l-47 -101q-10 77 -59 111q-44 31 -77 31q-59 0 -59 -72q0 -37 23 -62z" />
    <glyph glyph-name="afii59751" unicode="&#xe47;" 
d="M-189 1102v-77q0 -26 -17 -43q-14 -21 -46 -21h-53l-80 115l-76 -115h-78q-11 0 -29 26t-23 50q-2 13 -2 23q1 33 1 35q0 58 32 95q35 41 109 41q35 0 95 -17t87 -17q52 0 85 22q19 12 41 38l7 -24q-53 -45 -96 -55q-13 -3 -29 -3q-25 0 -58 8q-75 18 -92 18
q-31 0 -53 -12q-44 -24 -44 -111q0 -52 35 -96l88 128l92 -128v120h104z" />
    <glyph glyph-name="afii59752" unicode="&#xe48;" 
d="M-195 1233l-42 190q-10 47 56 47q22 0 43.5 -13t16.5 -34l-43 -190h-31z" />
    <glyph glyph-name="afii59753" unicode="&#xe49;" 
d="M-415 1369l48 81q8 11 21 11q36 0 64 -39q26 -35 26 -72q0 -31 -16 -58l-20 -26q21 -6 40 -6q201 0 201 185l67 -66q-15 -63 -120 -104q-87 -34 -165 -34q-75 0 -141 2q18 3 35 26t17 42q0 42 -28 54q-9 4 -29 4z" />
    <glyph glyph-name="afii59754" unicode="&#xe4a;" 
d="M19 1435q35 -29 35 -77q0 -38 -26.5 -68.5t-92.5 -30.5h-104v131l-92 -131l-89 131v-131h-108v83q0 26 19.5 46.5t45.5 20.5h56l76 -119l84 119h51q61 0 61 -67v-58q15 -6 26 -6q51 0 51 56q0 50 -37 58z" />
    <glyph glyph-name="afii59755" unicode="&#xe4b;" 
d="M-121 1234h-119v67h-88v44h88v65h119v-65h88v-44h-88v-67z" />
    <glyph glyph-name="afii59756" unicode="&#xe4c;" 
d="M-108 1367q51 9 51 50q0 6 -3 11h33v-20q0 -42 -35 -56q-115 -46 -115 -76q0 -12 9 -32h76v-22h-207q-12 27 -12 47q0 64 203 98z" />
    <glyph glyph-name="afii59757" unicode="&#xe4d;" 
d="M-169 1228q52 0 84.5 -32.5t32.5 -84.5t-32.5 -84.5t-84.5 -32.5q-117 0 -117 117q0 51 32.5 84t84.5 33zM-166 1050q61 0 61 61q0 63 -63 63q-61 0 -61 -62t63 -62z" />
    <glyph glyph-name="afii59758" unicode="&#xe4e;" 
d="M-58 1233q37 0 111 -8q34 -4 63 -8l-50 65q-28 3 -66 5q-83 5 -119 5q-81 0 -194 -17q-160 -25 -160 -66q0 -5 3 -9q11 -15 58 -28q36 -10 43 -10q-34 0 -83 -6q-105 -13 -137 -50q-9 -11 -9 -21q0 -38 100 -56q64 -11 129 -11q90 0 166 13q27 5 59 14l-40 40
q15 -3 15 -9q0 -11 -103 -11q-29 -5 -38 -5h-13q-57 0 -57 24q0 8 12 20t12 21v9q3 2 24 2h17q16 0 45 2t41 2h56l24 51q-15 3 -45 8q-59 10 -59 29q0 16 42 16q17 0 94 -7q44 -4 59 -4z" />
    <glyph glyph-name="afii59759" unicode="&#xe4f;" horiz-adv-x="684" 
d="M206 661q51 21 104 21q106 0 182 -71q82 -79 82 -193q0 -107 -75 -186t-189 -79q-80 0 -147 43.5t-98 116.5q-22 50 -22 104q0 51 18 98q39 101 145 146zM145 501q-20 -39 -20 -83q0 -114 105 -166q40 -20 83 -20q113 0 164 104q20 40 20 83q0 113 -102 165
q-39 19 -84 19q-115 0 -166 -102zM313 536q44 0 77.5 -34t33.5 -78q0 -45 -33.5 -79t-78.5 -34q-46 0 -79.5 34t-33.5 80q0 44 35 77.5t79 33.5z" />
    <glyph glyph-name="afii59760" unicode="&#xe50;" horiz-adv-x="652" 
d="M0 310q0 121 75 214q81 100 199 100q114 0 195 -102q75 -95 75 -212t-75 -211q-81 -101 -195 -101q-117 0 -198 99q-76 94 -76 213zM116 310q0 -291 158 -291q152 0 152 291q0 292 -152 292q-158 0 -158 -292z" />
    <glyph glyph-name="afii59761" unicode="&#xe51;" horiz-adv-x="652" 
d="M139 277l17 15l105 -107q-38 -38 -84 -38q-24 0 -54 11q-104 39 -120 155q-5 37 -5 60q0 111 66.5 181.5t176.5 70.5q138 0 232 -102q91 -99 91 -238q0 -126 -108 -211q-100 -79 -229 -79q-25 0 -70 8q-34 6 -99 37q37 -8 83 -8q277 0 277 261q0 275 -141 301
q-27 5 -51 5q-95 0 -151 -73q-50 -67 -50 -165q0 -60 22 -92q9 -12 36 -37q13 -12 32 -12q38 0 53 29z" />
    <glyph glyph-name="afii59762" unicode="&#xe52;" horiz-adv-x="757" 
d="M234 317q-23 36 -23 99v50q0 72 33 110q28 38 82 46l98 -130l92 130q58 -8 90 -46.5t32 -109.5v-259q0 -95 -44 -145q-56 -62 -111 -62h-272q-57 0 -109 61q-45 52 -45 146v601h-57v20h160v-706q0 -49 22 -71q31 -31 54 -31h222q26 0 53 31q23 21 23 71v394q0 6 1 14v9
q0 25 -15 38q-9 7 -12 9l-84 -120l-87 120l-11 -10q-11 -14 -11 -44v-274q-53 15 -81 59z" />
    <glyph glyph-name="afii59763" unicode="&#xe53;" horiz-adv-x="769" 
d="M156 0q-45 0 -96 48q-71 66 -71 262q0 148 71 242q28 37 47 50q29 20 69 20q97 0 134 -104q42 104 138 104q77 0 129 -80q45 -71 45 -152v-370h55v-20h-213v20h54v446q0 134 -70 134q-41 0 -66 -49q-21 -39 -21 -85v-259h-100v259q0 142 -85 134q-73 0 -73 -134v-259
q0 -103 30 -159q5 -23 31 -25q5 -1 10 -1q22 0 37 25q13 21 13 45l20 -17q-15 -75 -88 -75z" />
    <glyph glyph-name="afii59764" unicode="&#xe54;" horiz-adv-x="693" 
d="M345 76q65 -56 199 -56h37v-20h-374q-106 0 -162 108q-45 86 -45 202q0 118 45 204q56 108 164 108h157q40 0 55 4q49 13 57 67q3 24 3 45v8v2h-57v20h160v-19q0 -76 -17 -102q-21 -31 -60 -41q-24 -6 -81 -6h-219q-58 0 -78 -78q-13 -50 -13 -156v-57q0 -143 8 -188
q18 -101 83 -101h195q-49 17 -74 31q-77 43 -89 98q-3 14 -3 26q0 57 57 100l110 -109l-13 -15l-34 33q-35 -26 -35 -61q0 -26 24 -47z" />
    <glyph glyph-name="afii59765" unicode="&#xe55;" horiz-adv-x="693" 
d="M276 744q58 0 66 -52q5 -63 -54 -70q-61 -7 -69 54q-4 26 13.5 47t43.5 21zM345 76q65 -56 199 -56h37v-20h-374q-106 0 -162 108q-45 86 -45 202q0 118 45 204q56 108 164 108h157q40 0 55 4q49 13 57 67q3 24 3 45v8v2h-57v20h160v-19q0 -76 -17 -102q-21 -31 -60 -41
q-24 -6 -81 -6h-219q-58 0 -78 -78q-13 -50 -13 -156v-57q0 -143 8 -188q18 -101 83 -101h195q-49 17 -74 31q-77 43 -89 98q-3 14 -3 26q0 57 57 100l110 -109l-13 -15l-34 33q-35 -26 -35 -61q0 -26 24 -47z" />
    <glyph glyph-name="afii59766" unicode="&#xe56;" horiz-adv-x="668" 
d="M301 0q110 0 132 177q7 56 7 145q0 157 -14 211q-28 109 -125 109q-146 0 -176 -176h-22q0 111 -27 176q-39 93 -124 151l-1 22q73 -42 111 -100q26 -40 40 -72q18 -41 24 -94q55 114 175 114q125 0 195 -113q60 -95 60 -228q0 -126 -63 -226q-73 -116 -192 -116
q-79 0 -138.5 54t-59.5 132h131v-22h-33q0 -55 22 -95q27 -49 78 -49z" />
    <glyph glyph-name="afii59767" unicode="&#xe57;" horiz-adv-x="798" 
d="M549 20q21 0 28 40q4 23 4 71v677h-55v20h158v-697q0 -55 -39.5 -93t-95.5 -38q-55 0 -94.5 38t-39.5 93v335q0 134 -72 134q-43 0 -67 -66q-18 -49 -18 -101q0 53 -16 101q-23 66 -66 66q-73 0 -73 -134v-259q0 -103 30 -159q5 -23 31 -25q5 -1 10 -1q22 0 37 25
q13 21 13 45l20 -17q-15 -75 -88 -75q-44 0 -96 48q-32 30 -44 72q-3 12 -16 87q-9 54 -9 96q0 96 57 224q42 95 128 95q66 0 82 -90q28 90 85 90q78 0 129 -80q46 -70 46 -152v-259q0 -54 3 -71q7 -40 28 -40z" />
    <glyph glyph-name="afii59768" unicode="&#xe58;" horiz-adv-x="750" 
d="M481 258h-55v22h158v-177q0 -38 -25 -68q-29 -35 -78 -35l-146 207l-121 -207h-16q-105 0 -157 109q-41 84 -41 201q0 119 40 202q52 110 158 110h217q53 0 96 81q22 41 22 79v16q-1 7 -1 10h-54v20h157q0 -93 -41 -146q-63 -82 -178 -82h-209q-63 0 -63 -228v-62
q0 -137 6 -183q13 -100 57 -100h7l121 207l146 -207v231z" />
    <glyph glyph-name="afii59769" unicode="&#xe59;" horiz-adv-x="744" 
d="M310 143q6 -27 6 -40q0 -38 -28 -68q-34 -36 -85 -36q-11 0 -18 1q-185 27 -185 310q0 112 41 200q53 112 153 112q39 0 69 -25l38 -40q4 22 27 59q24 18 44 18q11 0 36 -9t33 -8q75 12 75 176v13v2h-55v20h169v-28v-14q1 -10 1 -14q1 -66 -11 -103q-17 -52 -63 -77
q-11 -6 -30 -6q-12 0 -34.5 3t-34.5 3q-82 0 -82 -119q0 -61 24 -117l144 -336h40v-20h-120v20h45l-169 395q-79 185 -146 185q-41 0 -62 -100q-16 -77 -16 -190q0 -125 7 -169q19 -121 91 -121q33 0 57 26.5t24 59.5q0 9 -3 20z" />
    <glyph glyph-name="afii59770" unicode="&#xe5a;" horiz-adv-x="969" 
d="M826 -185h57v-22h-215v22h55l-3 954h114zM516 752v-937h57v-22h-215v22h53v644q-55 -66 -139 -66t-147 51q-68 55 -68 137q0 83 68 144l82 -83q-6 1 -12 1q-35 0 -55.5 -29t-20.5 -65q0 -131 153 -131q63 0 104 79q35 65 35 135v129z" />
    <glyph glyph-name="afii59771" unicode="&#xe5b;" horiz-adv-x="1750" 
d="M1141 125q-36 0 -76 56q-32 44 -33 50q-11 -24 -28 -61q-32 -64 -51 -72q-18 -5 -55 52q-20 31 -57 92q-37 -51 -50 -67q-53 -67 -63 -64q-20 8 -53 45q-21 24 -40 50q-32 -88 -111 -139t-174 -51q-106 0 -194 69t-111 172q-11 49 -11 92q0 132 77.5 229t206.5 117
q20 3 38 3q52 0 111 -23q21 -8 47 -23l-13 -96q11 19 -49 34q-47 12 -75 12q-105 0 -174 -80q-65 -75 -65 -182q0 -96 57 -151.5t153 -55.5q181 0 234 245q19 86 24 86q3 0 54.5 -96t72.5 -96q9 0 54 97t57 99q17 0 55.5 -108t42.5 -108q102 185 106 185q9 0 47 -102.5
t70 -98.5q10 1 61.5 58.5t100.5 63.5q8 1 16 1q25 0 56 -15q69 -33 90 -33q14 0 60 16q13 6 26 21l73 -76q-31 -45 -140 -81q-15 -5 -30 -5q-23 0 -53 15q-68 34 -93 34q-10 0 -17 -1q-32 -4 -79 -56.5t-95 -52.5z" />
    <glyph glyph-name="endash" unicode="&#x2013;" horiz-adv-x="762" 
d="M86 373v70h668v-70h-668z" />
    <glyph glyph-name="emdash" unicode="&#x2014;" horiz-adv-x="985" 
d="M105 373v70h868v-70h-868z" />
    <glyph glyph-name="quoteleft" unicode="&#x2018;" horiz-adv-x="266" 
d="M84 736q-2 24 -2 35q0 71 43 71q46 0 46 -72q0 -20 -3 -34l-29 -268q-5 -42 -16 -42q-14 0 -17 42z" />
    <glyph glyph-name="quoteright" unicode="&#x2019;" horiz-adv-x="266" 
d="M84 736q-2 24 -2 35q0 71 43 71q46 0 46 -72q0 -20 -3 -34l-29 -268q-5 -42 -16 -42q-14 0 -17 42z" />
    <glyph glyph-name="quotedblleft" unicode="&#x201c;" horiz-adv-x="448" 
d="M84 736q-2 24 -2 35q0 71 43 71q46 0 46 -72q0 -20 -3 -34l-29 -268q-5 -42 -16 -42q-14 0 -17 42zM247 750q-3 15 -3 39q0 67 41 67q48 0 48 -72q0 -6 -1.5 -17t-1.5 -17l-29 -269q-1 -8 -4 -24.5t-14 -16.5q-10 0 -13 15q-2 20 -3 26z" />
    <glyph glyph-name="quotedblright" unicode="&#x201d;" horiz-adv-x="448" 
d="M84 736q-2 24 -2 35q0 71 43 71q46 0 46 -72q0 -20 -3 -34l-29 -268q-5 -42 -16 -42q-14 0 -17 42zM258 736q-2 24 -2 35q0 71 43 71q46 0 46 -70q0 -21 -3 -36l-29 -268q-5 -42 -16 -42q-14 0 -17 42z" />
    <glyph glyph-name="bullet" unicode="&#x2022;" horiz-adv-x="544" 
d="M65 400q0 75 51.5 128t125.5 53t127.5 -53t53.5 -126q0 -74 -52.5 -127t-126.5 -53t-126.5 52t-52.5 126z" />
    <glyph glyph-name="ellipsis" unicode="&#x2026;" horiz-adv-x="1322" 
d="M275 48q0 -64 -53 -64q-58 0 -58 64q0 66 60 66q51 0 51 -66zM718 48q0 -64 -58 -64t-58 61q0 69 58 69t58 -66zM1158 48q0 -64 -56 -64q-57 0 -57 61q0 69 57 69q56 0 56 -66z" />
    <glyph glyph-name="trademark" unicode="&#x2122;" horiz-adv-x="1337" 
d="M319 425v453h-172v79h435v-79h-174v-453h-89zM641 425v532h130l135 -425l130 425h128v-532h-81v446l-137 -446h-81l-142 453v-453h-82z" />
    <glyph glyph-name="uF700" unicode="&#xf700;" horiz-adv-x="625" 
d="M481 476v-456h51v-20h-233v20h62v96q0 105 -42 198q-57 126 -161 126l-50 -49l-15 16l126 125h5q67 0 107 -92q30 -69 30 -130v93v22q1 16 1 22q1 125 -40 177q-34 42 -103 42q-38 0 -85 -11l-132 -31q-5 25 -5 53q0 66 43.5 124.5t98.5 77.5q41 14 128 14q62 0 151 -34
q36 -14 91 -36v-156l-18 10q-6 29 -9 42q-10 41 -24 55q-43 43 -77 62q-57 32 -131 32q-147 0 -147 -111q28 9 85 23q18 2 40 2q253 0 253 -306z" />
    <glyph glyph-name="uF701" unicode="&#xf701;" 
d="M-269 1025q-30 -33 -104 -33q-43 0 -88 24q-97 52 -125 52q-9 -1 -14 -1q-46 -5 -118 -45q-18 -10 -30 -18v31q28 16 50 27q59 29 98 36q21 4 42 4q24 0 116 -23q44 -11 82 -11q61 0 91 40v-83z" />
    <glyph glyph-name="uF702" unicode="&#xf702;" 
d="M-307 1004l-29 -8q-32 -8 -54 -13q-10 -1 -16 -1q-36 0 -129 44q-45 21 -78 21q-48 0 -117 -36q-21 -11 -48 -28v32q26 17 47 28q56 29 93 33q23 5 60 5q34 0 70 -9q24 -6 85 -27v104h116v-145z" />
    <glyph glyph-name="uF703" unicode="&#xf703;" 
d="M-468 1136q8 22 16 32q26 32 77 32q37 0 61 -24.5t24 -60.5q0 -96 -87 -115q-14 -3 -24 -3q-29 0 -72 21q-97 48 -150 48q-12 0 -21 -1q-62 -7 -121 -36q-20 -10 -46 -27l-9 32q28 18 45 26q59 27 131 35q45 5 76 5q102 0 174 -33q18 -8 31 -8q39 0 48 43q1 5 1 15
q0 61 -54 61q-46 0 -68 -30q-7 -9 -14 -30z" />
    <glyph glyph-name="uF704" unicode="&#xf704;" 
d="M-293 1018q-13 -4 -30 -8q-52 -12 -67 -12h-10q-32 0 -101 31.5t-117 31.5q-64 0 -141 -34q-24 -10 -56 -28v30q32 18 54 29q95 46 184 46q30 0 63 -6v67h83v-92q4 -2 6 -2q15 -5 28 -5q12 0 20 4v95h84v-147z" />
    <glyph glyph-name="uF705" unicode="&#xf705;" 
d="M-385 999l-41 190q-1 4 -1 10q0 53 57 53q25 0 45.5 -19t14.5 -44l-43 -190h-32z" />
    <glyph glyph-name="uF706" unicode="&#xf706;" 
d="M-627 1143l46 81q6 11 23 11q35 0 62 -36.5t27 -72.5q0 -31 -17 -59l-20 -27q17 -5 38 -5q202 0 202 184l67 -66q-14 -63 -119 -104q-87 -34 -165 -34q-75 0 -141 2q16 3 33 27t17 41q1 8 1 11q0 34 -27 44q-8 3 -27 3z" />
    <glyph glyph-name="uF707" unicode="&#xf707;" 
d="M-231 1176q37 -28 37 -77q0 -38 -25 -67q-27 -32 -91 -32h-108v132l-90 -132l-89 132v-132h-106v85q0 27 16 47q17 17 46 17h55l78 -115l82 115h51q31 0 49 -17q16 -23 16 -47v-58q13 -7 24 -7q49 0 49 56q0 50 -35 59z" />
    <glyph glyph-name="uF708" unicode="&#xf708;" 
d="M-342 989h-117v64h-90v47h90v65h117v-65h90v-47h-90v-64z" />
    <glyph glyph-name="uF709" unicode="&#xf709;" 
d="M-323 1148q51 8 51 49q0 6 -3 11h33q1 -14 1 -22q0 -40 -34 -54q-116 -48 -116 -77q0 -13 9 -31h75v-22h-204q-13 29 -13 48q0 65 201 98z" />
    <glyph glyph-name="uF70A" unicode="&#xf70a;" 
d="M-261 953l-41 190q-1 5 -1 13q0 52 56 52q28 0 46.5 -18.5t15.5 -46.5l-46 -190h-30z" />
    <glyph glyph-name="uF70B" unicode="&#xf70b;" 
d="M-433 1103l48 81q7 12 23 12q34 0 60 -36.5t26 -71.5t-16 -59l-18 -27q7 -2 16 -3t20 0q204 0 204 184l67 -67q-14 -62 -120 -104q-89 -35 -165 -35q-92 0 -140 3q16 2 33 26q14 21 17 39q0 43 -27 55q-9 3 -28 3z" />
    <glyph glyph-name="uF70C" unicode="&#xf70c;" 
d="M-106 1160q36 -29 36 -78q0 -73 -62 -92q-21 -7 -53 -7h-108v132l-90 -132l-90 132v-132h-108v85q0 26 17 47q20 18 48 18h55l78 -116l81 116h52q30 0 48 -18q17 -23 17 -47v-58q12 -6 23 -6q13 0 26 6q24 11 24 49q0 50 -35 59z" />
    <glyph glyph-name="uF70D" unicode="&#xf70d;" 
d="M-207 991h-118v66h-90v45h90v64h118v-64h90v-45h-90v-66z" />
    <glyph glyph-name="uF70E" unicode="&#xf70e;" 
d="M-272 1162q27 10 34 29q4 11 4 33h25q0 -30 -2 -40q-5 -26 -25 -36q-24 -13 -70 -35q-26 -16 -26 -34q0 -15 15 -39h59v-23h-160q-16 26 -16 46q0 33 68 63q17 7 94 36z" />
    <glyph glyph-name="uF70F" unicode="&#xf70f;" horiz-adv-x="1081" 
d="M643 -21q-76 0 -135.5 61t-59.5 137v575q0 90 -72 90q-35 0 -107.5 -27.5t-95.5 -27.5v-767h61v-20h-234v20h57v767h-57v21h173q40 0 132 31.5t138 31.5q114 0 114 -146v-597q0 -130 97 -130q33 0 63 18q119 72 119 185v607h-60v20h223v-20h-59v-511q0 -65 -72 -162
q-116 -156 -225 -156z" />
    <glyph glyph-name="uF710" unicode="&#xf710;" 
d="M-193 1228l95 -93q-33 -83 -113 -112q-56 -21 -164 -21h-103q-65 0 -95 10q-44 15 -62 63q-6 16 -6 29q0 68 65 97l92 -93q-57 0 -57 -39q0 -45 77 -45h74q197 0 197 204z" />
    <glyph glyph-name="uF711" unicode="&#xf711;" 
d="M-431 1216q52 0 84 -32.5t32 -84.5q0 -117 -116 -117q-52 0 -84 32.5t-32 84.5q0 51 32.5 84t83.5 33zM-426 1037q62 0 62 61q0 64 -64 64q-62 0 -62 -62q0 -63 64 -63z" />
    <glyph glyph-name="uF712" unicode="&#xf712;" 
d="M-288 1165v-79q0 -25 -17 -43q-13 -19 -47 -19h-51l-81 116l-77 -116h-77q-23 0 -46 52q-8 29 -8 82q0 56 34.5 95t106.5 39q55 0 127 -23q34 -11 60 -11q21 0 29 2q50 13 93 59l6 -25q-50 -43 -96 -53q-13 -3 -30 -3q-26 0 -75.5 12.5t-72.5 12.5q-31 0 -57 -13
q-41 -22 -41 -93q1 -11 1 -16q0 -56 34 -98l89 130l91 -130v122h105z" />
    <glyph glyph-name="uF713" unicode="&#xf713;" 
d="M-381 1239l-41 189q-1 5 -1 13q0 52 57 52q60 0 60 -53q0 -7 -1 -12l-42 -189h-32z" />
    <glyph glyph-name="uF714" unicode="&#xf714;" 
d="M-581 1369l49 81l2 2q6 9 19 9q35 0 64 -39q26 -37 26 -73q0 -28 -16 -57l-21 -26q21 -6 40 -6q201 0 201 185l66 -66q-14 -63 -119 -104q-87 -34 -165 -34q-75 0 -141 2q18 3 35 26t17 42q0 42 -28 54q-9 4 -29 4z" />
    <glyph glyph-name="uF715" unicode="&#xf715;" 
d="M-119 1428q35 -29 35 -76q0 -75 -65 -93q-22 -7 -53 -7h-107v131l-91 -131l-89 131v-131h-108v85q0 23 19 46q21 19 46 19h56l76 -117l83 117h51q32 0 48 -20t16 -45v-56q14 -6 25 -6q32 0 43 24q6 13 6 29q0 51 -36 59z" />
    <glyph glyph-name="uF716" unicode="&#xf716;" 
d="M-308 1241h-115v65h-91v46h91v65h115v-65h90v-46h-90v-65z" />
    <glyph glyph-name="uF717" unicode="&#xf717;" 
d="M-247 1377q51 8 51 49q0 6 -3 11h33v-20q0 -43 -35 -57q-62 -24 -72 -29q-44 -21 -44 -46q0 -11 10 -33h76v-19h-206q-13 29 -13 47q0 64 203 97z" />
    <glyph glyph-name="uF718" unicode="&#xf718;" 
d="M-117 -280v-181h55v-22h-212v22h57v160h-57v21h157z" />
    <glyph glyph-name="uF719" unicode="&#xf719;" 
d="M-116 -317q0 -166 -167 -166q-93 0 -132 44q-36 41 -36 138h-43v21h146v-103q0 -78 65 -78q64 0 64 78v82h-22v21h146v-21h-21v-16z" />
    <glyph glyph-name="uF71A" unicode="&#xf71a;" 
d="M-156 -393q-68 0 -68 67q0 68 68 68t68 -68q0 -67 -68 -67z" />
    <glyph glyph-name="uF71B" unicode="&#xf71b;" 
d="M-615 1024h615v-1024h-615v1024z" />
    <glyph glyph-name="uF71C" unicode="&#xf71c;" horiz-adv-x="455" 
 />
    <glyph glyph-name="uF71D" unicode="&#xf71d;" horiz-adv-x="455" 
d="M24 -184v180h406v-180h-98v67h-215v-67h-93z" />
  </font>
</defs>
</svg>
